<svg xmlns="http://www.w3.org/2000/svg" width="481" height="212" fill="none" viewBox="0 0 481 212"><path fill="#d4af37" d="M240.5 68.438H.883v5.312H240.5zM240.5 64.075H.883v1.842H240.5zM240.5.246H.883v9.193H240.5zM238.328 37.339c-.639 12.945-10.772 23.372-23.327 24.662-9.071.932-18.853-2.721-24.72-9.936-7.165-8.811-6.741-21.669.033-30.634 7.159-9.475 20.21-13.115 31.126-8.846 10.049 3.929 17.165 13.642 16.888 24.754m-1.895 0c.291-11.632-8.119-21.438-19.066-24.005-11.124-2.608-23.445 3.174-28.266 13.826-4.125 9.116-2.272 19.618 5.134 26.283 6.243 5.618 15.324 7.986 23.457 6.191 10.327-2.28 18.208-11.499 18.741-22.295"/><path fill="#d4af37" d="M234.174 35.168c.048.67.074 1.345.057 2.029-.566 10.964-9.099 19.792-19.751 20.885-.687.07-1.379.099-2.072.108a1.02 1.02 0 0 1-1.187-.012c-6.691-.246-13.405-3.277-17.677-8.543-6.084-7.501-5.654-18.449.15-26.027 6.125-7.998 17.21-10.986 26.437-7.286 7.588 3.043 13.137 10.002 13.98 18.184.09.208.11.44.063.662M197.2 50.698c3.732 3.325 8.67 5.236 13.654 5.519a816 816 0 0 1 .402-39.458c.001-.036.018-.061.022-.095-7.609.23-15.011 4.68-18.345 11.825a20.1 20.1 0 0 0-1.655 5.471c5.237-.001 10.496.568 15.722.222l.004-7.806.002-4.395c0-.331.106-1.314-.177-1.438-.289-.127-1.296.46-1.615.593-4.022 1.686-7.52 4.57-10.023 8.182 1.515.235 3.035.425 4.566.524q.756.049 1.514.077c.218.008.457.042.674.02.296-.03.179.08.265-.072.152-.268.008-1.069.009-1.385l.008-1.624c.006-1.243 1.9-1.242 1.895 0l-.011 2.345c-.002.497.031 1.034-.144 1.508-.437 1.185-1.646 1.174-2.696 1.136a56 56 0 0 1-7.947-.878c-.602-.109-.864-.924-.566-1.417 2.967-4.91 7.538-8.675 12.861-10.632 1.309-.481 2.712-.373 3.146 1.195.392 1.418.135 3.147.134 4.6l-.005 10.371c0 .559-.437.919-.947.964-5.606.499-11.256-.181-16.879-.162q-.036.72-.02 1.437c.062-.009.113-.033.183-.03 5.383.232 10.776-.239 16.151.235.511.045.947.41.947.965l.005 10.037c.001 1.368.242 2.981-.125 4.315-.405 1.472-1.734 1.602-2.968 1.148a23.1 23.1 0 0 1-11.758-9.719c-.298-.493-.036-1.308.566-1.417a51 51 0 0 1 7.257-.802c.991-.035 2.134-.025 2.536 1.098.37 1.033.138 2.449.143 3.531.006 1.244-1.889 1.241-1.894 0l-.008-1.643c-.001-.25.085-.78.019-1.079-.033-.004-.096-.022-.183.004-.204.062-.545.015-.766.024q-.613.024-1.225.064c-1.345.087-2.68.253-4.011.456 2.263 3.22 5.401 5.781 9.002 7.3.276.116 1.26.628 1.456.571.11-.031.067-1.115.067-1.262l-.002-4.209-.004-7.501c-5.062-.347-10.138.031-15.204-.187-.015-.001-.025-.009-.04-.01.531 4.325 2.55 8.403 6.008 11.484m34.914-11.468c-5.015.204-10.039-.159-15.049.185l-.004 7.501-.002 4.209c0 .305-.03.628.009.931.021.167.126.342.045.3.234.121 1.198-.426 1.47-.54 3.601-1.511 6.741-4.081 9.003-7.3a47 47 0 0 0-4.012-.456 49 49 0 0 0-1.378-.07c-.183-.007-.438.033-.613-.018l-.158.001c-.108.876-.01 1.835-.014 2.717-.006 1.243-1.9 1.242-1.895 0 .005-1.075-.23-2.504.143-3.531.409-1.123 1.54-1.134 2.536-1.098a51 51 0 0 1 7.257.802c.602.109.864.924.566 1.417a23.1 23.1 0 0 1-11.758 9.719c-1.234.454-2.563.324-2.968-1.148-.366-1.331-.126-2.952-.125-4.315l.005-10.037c0-.559.437-.919.947-.965 5.375-.474 10.769-.003 16.151-.235.021-.001.036.009.056.009.002-.037.009-.073.01-.111.011-.44-.01-.873-.028-1.306-5.581-.009-11.189.657-16.754.162-.511-.045-.947-.409-.947-.964l-.005-10.371c-.001-1.458-.259-3.178.134-4.6.434-1.568 1.837-1.676 3.146-1.195 5.323 1.957 9.894 5.722 12.861 10.632.297.493.036 1.308-.566 1.417a56 56 0 0 1-7.947.878c-1.045.037-2.264.048-2.696-1.136-.193-.529-.142-1.134-.145-1.688l-.01-2.165c-.006-1.244 1.889-1.241 1.894 0l.009 1.804c.001.266-.141 1.117.011 1.326.087.12 2.113-.125 2.45-.147a51 51 0 0 0 4.566-.524c-2.505-3.613-6.001-6.488-10.023-8.182-.294-.124-1.376-.711-1.645-.616-.245.087-.146 1.246-.146 1.46l.002 4.395.004 7.806c5.196.344 10.425-.217 15.633-.222-1.193-8.29-7.674-14.966-15.828-16.822a20 20 0 0 0-3.166-.442c0 .023.011.039.01.062a817 817 0 0 0-.402 39.476c1.341-.039 2.676-.162 3.979-.452 7.956-1.77 14.123-8.452 15.387-16.553M177.654 37.339c-.639 12.946-10.772 23.373-23.327 24.662-9.072.932-18.853-2.721-24.72-9.936-7.165-8.81-6.741-21.67.033-30.634 7.159-9.475 20.21-13.115 31.126-8.847 10.05 3.93 17.166 13.643 16.888 24.755m-1.894 0c.291-11.632-8.119-21.438-19.066-24.005-11.124-2.608-23.445 3.174-28.266 13.826-4.125 9.116-2.272 19.618 5.134 26.283 6.243 5.618 15.324 7.986 23.457 6.19 10.326-2.28 18.208-11.498 18.741-22.294"/><path fill="#d4af37" d="M173.501 35.168c.048.67.073 1.345.056 2.029-.566 10.964-9.099 19.792-19.751 20.885-.687.07-1.379.099-2.072.108a1.02 1.02 0 0 1-1.187-.011c-6.691-.246-13.406-3.277-17.677-8.543-6.084-7.501-5.654-18.449.15-26.027 6.125-7.998 17.21-10.986 26.437-7.286 7.588 3.043 13.137 10.002 13.98 18.184.09.207.11.438.064.661m-36.975 15.53c3.731 3.325 8.67 5.236 13.654 5.519a816 816 0 0 1 .402-39.458c.001-.036.018-.061.022-.095-7.609.23-15.011 4.679-18.345 11.825a20.1 20.1 0 0 0-1.655 5.471c5.237-.001 10.496.568 15.722.222l.004-7.806.002-4.395c0-.331.106-1.314-.177-1.438-.289-.127-1.297.46-1.615.594-4.022 1.685-7.52 4.57-10.023 8.181 1.515.235 3.035.425 4.566.524q.757.05 1.514.076c.218.008.457.042.674.02.296-.03.18.08.266-.072.152-.268.008-1.068.009-1.385l.008-1.624c.006-1.243 1.9-1.242 1.894 0l-.011 2.345c-.002.497.031 1.034-.144 1.508-.437 1.185-1.647 1.174-2.695 1.136a56 56 0 0 1-7.947-.878c-.602-.109-.864-.924-.566-1.417 2.967-4.91 7.538-8.675 12.86-10.632 1.308-.481 2.712-.373 3.146 1.195.392 1.418.135 3.147.134 4.6l-.006 10.371c0 .56-.437.919-.947.965-5.606.499-11.256-.181-16.879-.162q-.036.72-.02 1.438c.062-.009.113-.033.183-.03 5.383.232 10.776-.239 16.151.235.511.045.947.41.947.965l.005 10.037c.001 1.368.242 2.981-.125 4.316-.405 1.472-1.734 1.602-2.968 1.148a23.1 23.1 0 0 1-11.758-9.719c-.298-.493-.036-1.308.566-1.417a51 51 0 0 1 7.257-.802c.991-.035 2.133-.025 2.536 1.098.37 1.033.139 2.449.144 3.531.006 1.244-1.889 1.241-1.894 0l-.008-1.643c-.001-.25.085-.78.019-1.079-.033-.004-.096-.022-.183.004-.204.062-.544.015-.766.024q-.613.024-1.225.063a47 47 0 0 0-4.012.456c2.263 3.221 5.401 5.781 9.002 7.3.276.116 1.26.628 1.456.572.11-.032.067-1.115.067-1.262l-.002-4.209-.004-7.501c-5.062-.347-10.138.031-15.205-.187-.015 0-.025-.008-.04-.01.533 4.323 2.552 8.401 6.01 11.482M171.44 39.23c-5.015.204-10.039-.159-15.049.185l-.004 7.501-.002 4.209c0 .305-.029.628.009.931.021.167.127.342.045.299.234.121 1.198-.426 1.47-.54 3.6-1.511 6.741-4.081 9.002-7.3a47 47 0 0 0-4.011-.456 49 49 0 0 0-1.378-.07c-.183-.007-.438.033-.613-.018l-.157.001c-.108.876-.01 1.836-.014 2.717-.006 1.243-1.9 1.242-1.894 0 .005-1.075-.23-2.504.144-3.531.408-1.123 1.539-1.134 2.536-1.098a51 51 0 0 1 7.257.802c.602.109.864.924.566 1.417a23.1 23.1 0 0 1-11.758 9.719c-1.234.454-2.563.324-2.968-1.148-.366-1.331-.126-2.952-.125-4.316l.005-10.037c0-.56.437-.92.947-.965 5.375-.474 10.769-.003 16.151-.235.022-.001.036.009.057.009.002-.037.009-.073.01-.111.011-.44-.01-.873-.028-1.306-5.581-.009-11.189.657-16.754.162-.511-.045-.947-.41-.947-.965l-.005-10.371c-.001-1.458-.259-3.178.134-4.6.434-1.568 1.837-1.676 3.146-1.195 5.323 1.957 9.894 5.722 12.861 10.632.298.493.036 1.308-.566 1.417a56 56 0 0 1-7.947.878c-1.045.037-2.263.048-2.696-1.136-.193-.529-.142-1.134-.144-1.688l-.01-2.165c-.006-1.244 1.889-1.241 1.895 0l.008 1.804c.001.266-.14 1.117.012 1.326.087.12 2.113-.125 2.45-.146a51 51 0 0 0 4.566-.524c-2.505-3.613-6-6.488-10.023-8.181-.294-.124-1.376-.711-1.645-.616-.246.087-.147 1.245-.147 1.46l.002 4.395.004 7.806c5.196.344 10.425-.217 15.633-.222-1.193-8.29-7.674-14.966-15.828-16.822a19.7 19.7 0 0 0-3.166-.442c.001.023.011.038.01.062a817 817 0 0 0-.402 39.476c1.341-.039 2.676-.162 3.979-.452 7.951-1.769 14.119-8.451 15.382-16.552M116.98 37.338C116.341 50.284 106.208 60.711 93.653 62c-9.071.932-18.853-2.721-24.72-9.936-7.165-8.81-6.741-21.669.033-30.634 7.159-9.475 20.21-13.115 31.126-8.847 10.051 3.931 17.166 13.644 16.888 24.755m-1.894 0c.291-11.631-8.119-21.438-19.066-24.004-11.124-2.608-23.445 3.174-28.266 13.827-4.125 9.116-2.272 19.617 5.134 26.282 6.243 5.619 15.324 7.986 23.457 6.19 10.327-2.28 18.208-11.498 18.741-22.295"/><path fill="#d4af37" d="M112.828 35.168c.048.67.073 1.345.056 2.029-.566 10.964-9.099 19.792-19.751 20.885-.687.07-1.379.099-2.072.108-.34.25-.845.247-1.187-.012-6.691-.246-13.405-3.276-17.677-8.543-6.084-7.501-5.654-18.45.15-26.027 6.125-7.998 17.21-10.987 26.437-7.286 7.588 3.043 13.137 10.002 13.98 18.184.09.208.11.44.064.662m-36.975 15.53c3.732 3.325 8.67 5.236 13.654 5.519a816 816 0 0 1 .402-39.458c.001-.036.018-.061.022-.095-7.609.231-15.011 4.679-18.345 11.825a20.2 20.2 0 0 0-1.655 5.47c5.237 0 10.496.569 15.722.223l.004-7.806.003-4.396c0-.33.106-1.314-.177-1.438-.289-.127-1.296.46-1.615.594-4.022 1.685-7.52 4.57-10.023 8.18 1.515.236 3.035.426 4.566.525q.756.05 1.514.076c.218.008.457.042.673.02.296-.03.18.08.266-.072.152-.268.008-1.068.009-1.385l.007-1.624c.006-1.243 1.9-1.241 1.895 0l-.011 2.346c-.002.497.031 1.034-.144 1.508-.437 1.185-1.646 1.174-2.695 1.136a56 56 0 0 1-7.947-.878c-.602-.11-.864-.924-.566-1.417 2.967-4.91 7.538-8.675 12.861-10.632 1.308-.481 2.712-.373 3.146 1.195.393 1.418.135 3.147.134 4.6l-.006 10.37c0 .56-.437.92-.947.966-5.606.499-11.257-.181-16.879-.163q-.036.72-.02 1.438c.062-.009.113-.033.183-.03 5.383.232 10.776-.24 16.151.235.512.045.947.41.947.965l.005 10.037c.001 1.368.242 2.98-.125 4.316-.405 1.472-1.734 1.602-2.968 1.148a23.1 23.1 0 0 1-11.758-9.72c-.298-.492-.036-1.307.566-1.416a51 51 0 0 1 7.257-.802c.991-.035 2.134-.025 2.536 1.098.37 1.033.139 2.449.144 3.531.006 1.244-1.889 1.241-1.894 0l-.008-1.642c-.001-.25.085-.78.019-1.08-.033-.004-.096-.022-.183.004-.205.062-.545.016-.766.024q-.613.024-1.225.064a47 47 0 0 0-4.012.455c2.263 3.22 5.401 5.781 9.002 7.3.276.116 1.26.628 1.456.571.11-.031.067-1.114.067-1.261l-.002-4.21-.004-7.5c-5.061-.347-10.138.03-15.204-.187-.015-.001-.025-.008-.04-.01.531 4.324 2.55 8.402 6.008 11.483m34.914-11.468c-5.015.204-10.039-.159-15.049.184l-.004 7.5-.002 4.21c0 .305-.029.628.009.931.021.167.126.341.044.299.234.121 1.198-.426 1.47-.54 3.601-1.511 6.741-4.081 9.003-7.3a47 47 0 0 0-4.012-.455 49 49 0 0 0-1.378-.07c-.183-.006-.438.033-.613-.018l-.157.001c-.108.876-.01 1.836-.014 2.717-.006 1.243-1.9 1.242-1.895 0 .005-1.075-.23-2.504.144-3.531.409-1.123 1.54-1.134 2.536-1.098a51 51 0 0 1 7.257.802c.602.109.864.924.566 1.417a23.1 23.1 0 0 1-11.758 9.719c-1.234.454-2.563.324-2.968-1.148-.366-1.331-.126-2.952-.125-4.316l.005-10.037c0-.559.437-.919.947-.965 5.375-.474 10.768-.003 16.151-.235.021-.001.036.009.056.009q.005-.055.01-.111c.011-.44-.01-.873-.028-1.306-5.581-.008-11.189.658-16.754.163-.511-.046-.947-.41-.947-.965l-.006-10.371c-.001-1.458-.259-3.178.134-4.6.434-1.568 1.837-1.676 3.146-1.195 5.323 1.957 9.894 5.722 12.861 10.632.298.493.036 1.308-.566 1.417a56 56 0 0 1-7.947.878c-1.045.037-2.263.049-2.695-1.136-.193-.53-.142-1.134-.145-1.689l-.01-2.165c-.006-1.243 1.889-1.241 1.894 0l.008 1.805c.001.266-.141 1.117.011 1.326.087.12 2.113-.125 2.45-.147a51 51 0 0 0 4.566-.524c-2.505-3.614-6-6.488-10.023-8.181-.294-.124-1.376-.711-1.645-.616-.246.087-.146 1.246-.146 1.46l.002 4.396.004 7.806c5.196.344 10.425-.217 15.633-.222-1.193-8.29-7.674-14.966-15.828-16.822a19.7 19.7 0 0 0-3.166-.442c0 .023.011.038.01.062a817 817 0 0 0-.402 39.476c1.34-.039 2.676-.162 3.979-.452 7.956-1.77 14.123-8.452 15.387-16.553M56.307 37.338C55.668 50.284 45.535 60.711 32.98 62c-9.072.932-18.853-2.721-24.72-9.936-7.165-8.81-6.741-21.669.033-30.634 7.159-9.475 20.21-13.115 31.126-8.847 10.05 3.931 17.166 13.644 16.888 24.755m-1.895 0c.291-11.631-8.119-21.438-19.066-24.004C24.222 10.726 11.901 16.508 7.08 27.16c-4.125 9.116-2.272 19.618 5.134 26.282 6.243 5.619 15.324 7.986 23.457 6.191 10.327-2.279 18.209-11.498 18.741-22.295"/><path fill="#d4af37" d="M52.154 35.168c.048.67.073 1.345.057 2.028-.566 10.964-9.099 19.792-19.751 20.885-.687.071-1.379.099-2.072.108a1.02 1.02 0 0 1-1.187-.011c-6.691-.246-13.405-3.277-17.677-8.543-6.084-7.501-5.654-18.449.15-26.027 6.125-7.998 17.21-10.986 26.437-7.286 7.588 3.043 13.137 10.002 13.98 18.184.089.208.109.44.063.662m-36.975 15.53c3.731 3.325 8.67 5.236 13.654 5.519a816 816 0 0 1 .402-39.458c.001-.036.018-.061.022-.095-7.609.231-15.011 4.679-18.345 11.825a20.2 20.2 0 0 0-1.655 5.472c5.237-.001 10.496.568 15.722.222l.004-7.806.002-4.395c0-.331.106-1.314-.177-1.438-.289-.126-1.296.46-1.615.594-4.022 1.685-7.52 4.57-10.023 8.181 1.515.235 3.035.425 4.566.524q.756.05 1.514.077c.218.008.457.042.674.02.295-.03.179.08.265-.072.152-.268.008-1.068.009-1.385l.008-1.624c.006-1.243 1.9-1.242 1.894 0l-.011 2.346c-.002.497.031 1.034-.144 1.508-.437 1.184-1.647 1.174-2.696 1.136a56 56 0 0 1-7.947-.878c-.602-.109-.864-.924-.566-1.417 2.967-4.91 7.538-8.675 12.861-10.632 1.308-.481 2.712-.373 3.146 1.195.392 1.418.135 3.147.134 4.6l-.005 10.371c0 .56-.437.919-.947.965-5.606.499-11.256-.181-16.879-.162q-.036.72-.02 1.438c.062-.009.113-.033.183-.03 5.383.232 10.776-.239 16.151.235.511.045.947.41.947.965l.005 10.037c.001 1.368.242 2.981-.125 4.316-.405 1.472-1.734 1.602-2.968 1.148a23.1 23.1 0 0 1-11.758-9.719c-.297-.493-.036-1.308.566-1.417a51 51 0 0 1 7.257-.802c.991-.035 2.134-.025 2.536 1.098.37 1.033.139 2.449.144 3.531.006 1.244-1.889 1.241-1.894 0l-.008-1.643c-.001-.25.085-.78.019-1.08-.033-.004-.096-.022-.183.004-.204.062-.544.015-.766.024q-.613.024-1.225.063c-1.345.087-2.68.253-4.012.456 2.263 3.22 5.401 5.781 9.003 7.3.276.117 1.26.628 1.456.572.11-.032.067-1.115.067-1.262l-.002-4.209-.004-7.501c-5.062-.347-10.138.031-15.205-.187-.015-.001-.025-.009-.039-.01.532 4.321 2.55 8.399 6.008 11.48M50.093 39.23c-5.015.204-10.039-.159-15.049.185l-.004 7.501-.002 4.209c0 .305-.029.628.009.931.021.167.126.341.045.299.234.121 1.198-.426 1.47-.54 3.6-1.511 6.741-4.081 9.002-7.3a47 47 0 0 0-4.011-.456 49 49 0 0 0-1.378-.07c-.183-.007-.438.033-.613-.018l-.158.001c-.108.876-.01 1.836-.014 2.717-.006 1.243-1.9 1.242-1.894 0 .005-1.075-.23-2.504.144-3.531.408-1.123 1.539-1.134 2.536-1.098a51 51 0 0 1 7.257.802c.602.109.864.924.566 1.417a23.1 23.1 0 0 1-11.758 9.719c-1.234.454-2.563.324-2.968-1.148-.366-1.331-.126-2.952-.125-4.316l.005-10.037c0-.559.437-.92.947-.965 5.375-.474 10.769-.003 16.151-.235.022-.001.036.009.056.009.002-.037.009-.073.01-.111.011-.44-.01-.872-.028-1.306-5.581-.008-11.189.658-16.754.162-.51-.045-.947-.41-.947-.965l-.005-10.371c-.001-1.458-.259-3.178.134-4.6.434-1.568 1.837-1.676 3.146-1.195 5.323 1.957 9.894 5.722 12.861 10.632.298.493.036 1.308-.566 1.417a56 56 0 0 1-7.947.878c-1.045.038-2.263.049-2.696-1.136-.193-.53-.142-1.134-.145-1.689l-.01-2.165c-.006-1.244 1.889-1.241 1.895 0l.008 1.804c.001.266-.14 1.117.012 1.326.087.12 2.113-.125 2.45-.147a51 51 0 0 0 4.566-.524c-2.505-3.614-6-6.488-10.023-8.181-.294-.124-1.376-.711-1.645-.616-.246.086-.147 1.246-.147 1.46l.003 4.395.004 7.806c5.196.344 10.425-.217 15.633-.222-1.193-8.29-7.674-14.966-15.828-16.822a19.7 19.7 0 0 0-3.166-.442c.001.023.011.039.01.062a817 817 0 0 0-.402 39.476c1.341-.039 2.676-.162 3.979-.452 7.953-1.767 14.121-8.449 15.384-16.55M480.117 68.902H240.5v5.348h239.617zM480.117 64.51H240.5v1.854h239.617zM480.117.246H240.5v9.256h239.617zM477.944 37.591c-.639 13.033-10.772 23.531-23.327 24.83-9.071.938-18.853-2.74-24.72-10.004-7.165-8.87-6.741-21.816.033-30.842 7.159-9.54 20.21-13.204 31.126-8.906 10.05 3.956 17.166 13.735 16.888 24.922m-1.894 0c.291-11.71-8.119-21.583-19.066-24.168-11.124-2.626-23.445 3.196-28.266 13.92-4.125 9.178-2.272 19.751 5.134 26.462 6.243 5.656 15.324 8.04 23.457 6.233 10.327-2.296 18.208-11.577 18.741-22.447"/><path fill="#d4af37" d="M473.791 35.406c.048.674.074 1.354.057 2.042-.566 11.039-9.099 19.927-19.751 21.027-.687.07-1.379.1-2.072.11-.34.25-.845.248-1.187-.013-6.691-.248-13.405-3.3-17.677-8.601-6.084-7.552-5.654-18.575.15-26.204 6.125-8.052 17.21-11.06 26.437-7.336 7.588 3.064 13.137 10.07 13.98 18.308.09.21.11.443.063.667M436.816 51.04c3.732 3.348 8.67 5.272 13.654 5.557a827 827 0 0 1 .402-39.727c.001-.036.018-.061.022-.095-7.609.231-15.011 4.712-18.345 11.905a20.4 20.4 0 0 0-1.655 5.508c5.237 0 10.496.572 15.722.224l.004-7.86.002-4.424c0-.333.106-1.323-.177-1.448-.289-.128-1.296.463-1.615.597-4.022 1.698-7.52 4.601-10.023 8.238 1.515.236 3.035.428 4.566.527q.756.05 1.514.078c.218.008.457.042.674.02.296-.03.179.08.265-.072.152-.27.008-1.077.009-1.395l.008-1.635c.006-1.251 1.9-1.25 1.894 0l-.011 2.361c-.002.5.031 1.041-.144 1.518-.437 1.193-1.646 1.182-2.696 1.144a55.5 55.5 0 0 1-7.947-.884c-.602-.11-.864-.93-.566-1.427 2.967-4.943 7.538-8.734 12.86-10.704 1.309-.484 2.712-.375 3.146 1.203.392 1.428.135 3.169.134 4.631l-.005 10.442c0 .563-.437.925-.947.97-5.606.503-11.256-.182-16.879-.163q-.036.727-.02 1.447c.062-.009.113-.033.183-.03 5.382.234 10.776-.24 16.151.237.511.045.947.412.947.971l.005 10.105c.001 1.378.242 3.002-.125 4.345-.405 1.482-1.734 1.613-2.968 1.156-4.867-1.803-9.045-5.265-11.758-9.785-.298-.497-.036-1.317.566-1.427a50.5 50.5 0 0 1 7.257-.808c.991-.035 2.134-.025 2.536 1.106.37 1.04.139 2.465.144 3.555.006 1.252-1.889 1.25-1.894 0l-.008-1.654c-.001-.252.085-.786.019-1.087-.033-.004-.096-.022-.184.004-.204.063-.545.016-.766.025a45 45 0 0 0-1.225.064c-1.345.088-2.68.255-4.011.46 2.263 3.241 5.401 5.82 9.002 7.349.276.117 1.26.632 1.456.575.11-.032.068-1.123.067-1.271l-.002-4.238-.004-7.552c-5.061-.349-10.137.032-15.204-.188-.015 0-.025-.009-.04-.01.534 4.355 2.552 8.46 6.01 11.562m34.915-11.546c-5.015.206-10.039-.16-15.049.186l-.004 7.553-.002 4.237c0 .307-.029.632.009.937.021.169.126.345.045.302.234.122 1.198-.428 1.47-.543 3.601-1.522 6.741-4.109 9.003-7.35a47 47 0 0 0-4.012-.459q-.689-.045-1.378-.07c-.183-.007-.438.033-.613-.019l-.158.001c-.108.882-.01 1.848-.014 2.736-.006 1.251-1.9 1.25-1.895 0 .005-1.082-.23-2.521.144-3.555.409-1.13 1.54-1.142 2.536-1.106 2.435.089 4.859.37 7.257.808.602.11.864.93.566 1.427-2.713 4.52-6.891 7.982-11.758 9.785-1.234.457-2.563.326-2.968-1.156-.366-1.34-.126-2.972-.125-4.345l.005-10.105c0-.563.437-.925.947-.971 5.375-.478 10.769-.003 16.151-.237.021-.001.036.01.056.01.002-.038.009-.074.01-.113.011-.443-.01-.879-.028-1.315-5.581-.009-11.189.662-16.754.163-.511-.045-.947-.411-.947-.97l-.005-10.442c-.001-1.468-.259-3.2.134-4.63.434-1.58 1.837-1.688 3.146-1.204 5.323 1.97 9.894 5.761 12.861 10.704.298.497.036 1.317-.566 1.427-2.626.48-5.281.788-7.947.884-1.045.037-2.264.048-2.696-1.144-.193-.532-.142-1.142-.145-1.7l-.01-2.179c-.006-1.253 1.889-1.25 1.894 0l.009 1.816c.001.268-.141 1.125.011 1.335.087.121 2.113-.126 2.45-.148 1.531-.1 3.051-.29 4.566-.527-2.505-3.638-6.001-6.532-10.023-8.238-.294-.125-1.376-.716-1.645-.62-.245.087-.146 1.254-.146 1.47l.002 4.425.004 7.859c5.196.346 10.425-.219 15.633-.224-1.193-8.346-7.674-15.067-15.828-16.936a19.7 19.7 0 0 0-3.166-.445c0 .023.011.04.01.062a828 828 0 0 0-.402 39.745c1.34-.04 2.676-.163 3.979-.455 7.954-1.782 14.122-8.51 15.386-16.666M417.271 37.591c-.639 13.034-10.772 23.532-23.327 24.83-9.072.938-18.853-2.74-24.72-10.004-7.165-8.87-6.741-21.816.033-30.842 7.159-9.54 20.209-13.204 31.126-8.907 10.05 3.957 17.165 13.736 16.888 24.923m-1.895 0c.291-11.71-8.119-21.583-19.066-24.168-11.124-2.626-23.445 3.196-28.266 13.92-4.125 9.178-2.272 19.751 5.134 26.462 6.243 5.656 15.324 8.04 23.457 6.233 10.327-2.296 18.208-11.577 18.741-22.447"/><path fill="#d4af37" d="M413.118 35.406c.047.674.073 1.354.056 2.042-.566 11.039-9.099 19.927-19.751 21.027-.687.07-1.379.1-2.072.11-.34.25-.845.248-1.187-.012-6.691-.248-13.406-3.3-17.677-8.601-6.084-7.552-5.654-18.574.15-26.204 6.125-8.052 17.21-11.06 26.437-7.336 7.588 3.064 13.137 10.07 13.98 18.308.09.209.11.441.064.666M376.143 51.04c3.731 3.348 8.67 5.272 13.654 5.557a827 827 0 0 1 .402-39.727c.001-.036.018-.061.022-.095-7.609.231-15.011 4.71-18.345 11.905a20.4 20.4 0 0 0-1.655 5.508c5.237 0 10.496.572 15.722.224l.004-7.86.002-4.424c0-.333.106-1.323-.177-1.448-.289-.128-1.297.463-1.615.598-4.022 1.697-7.52 4.601-10.023 8.237 1.515.236 3.035.428 4.566.527q.757.05 1.514.077c.218.008.457.042.674.02.296-.03.18.08.266-.073.152-.27.007-1.075.009-1.394l.008-1.635c.006-1.251 1.9-1.25 1.894 0l-.011 2.361c-.002.5.031 1.041-.144 1.518-.437 1.193-1.646 1.182-2.695 1.144a56 56 0 0 1-7.947-.884c-.602-.11-.864-.93-.566-1.427 2.967-4.943 7.538-8.734 12.86-10.704 1.309-.484 2.712-.375 3.146 1.203.392 1.428.135 3.169.134 4.632l-.006 10.441c0 .564-.437.925-.947.972-5.606.502-11.256-.183-16.879-.163q-.037.725-.02 1.447c.062-.009.113-.033.183-.03 5.382.234 10.776-.24 16.151.237.511.045.947.412.947.971l.005 10.106c.001 1.377.242 3-.125 4.345-.405 1.482-1.734 1.613-2.968 1.156-4.867-1.803-9.046-5.265-11.758-9.785-.298-.497-.036-1.317.566-1.427a51 51 0 0 1 7.257-.808c.991-.035 2.133-.025 2.536 1.106.37 1.04.139 2.466.144 3.555.006 1.252-1.889 1.25-1.895 0l-.007-1.654c-.001-.252.085-.785.019-1.087-.033-.004-.096-.022-.183.004-.204.063-.544.015-.766.025q-.613.024-1.225.063a46 46 0 0 0-4.012.46c2.263 3.242 5.401 5.82 9.002 7.349.276.117 1.26.632 1.456.576.11-.032.067-1.123.067-1.27l-.002-4.239-.004-7.552c-5.062-.349-10.138.032-15.205-.188-.015 0-.025-.008-.04-.01.533 4.352 2.552 8.458 6.01 11.56m34.914-11.546c-5.015.206-10.039-.16-15.049.187l-.004 7.551-.002 4.238c0 .307-.029.632.009.938.021.168.127.344.045.3.234.122 1.198-.428 1.47-.543 3.6-1.521 6.741-4.109 9.002-7.35a47 47 0 0 0-4.011-.459 49 49 0 0 0-1.378-.07c-.183-.007-.438.033-.613-.018h-.157c-.108.882-.01 1.849-.014 2.736-.006 1.251-1.9 1.25-1.894 0 .005-1.082-.23-2.521.144-3.555.408-1.13 1.539-1.142 2.536-1.106 2.435.09 4.859.371 7.257.808.602.11.864.93.566 1.427-2.713 4.52-6.892 7.983-11.758 9.785-1.234.457-2.563.326-2.968-1.156-.366-1.34-.126-2.972-.125-4.346l.005-10.105c0-.564.437-.926.947-.971 5.375-.478 10.769-.003 16.151-.237.022 0 .036.01.057.01.002-.038.008-.074.01-.113.011-.443-.01-.879-.028-1.314-5.581-.01-11.189.66-16.754.163-.511-.046-.947-.413-.947-.972l-.005-10.442c-.001-1.468-.259-3.2.134-4.63.434-1.58 1.837-1.688 3.146-1.204 5.323 1.97 9.894 5.761 12.861 10.704.298.497.036 1.317-.566 1.427a55.6 55.6 0 0 1-7.947.884c-1.045.037-2.263.048-2.696-1.144-.193-.532-.142-1.141-.144-1.7l-.01-2.179c-.006-1.252 1.889-1.25 1.895 0l.008 1.816c.001.268-.14 1.125.012 1.335.087.121 2.113-.126 2.45-.147 1.531-.1 3.051-.29 4.566-.527-2.505-3.638-6-6.532-10.023-8.237-.294-.125-1.376-.716-1.645-.62-.246.088-.147 1.253-.147 1.47l.002 4.425.004 7.859c5.196.346 10.426-.219 15.633-.224-1.193-8.346-7.674-15.067-15.828-16.936a19.6 19.6 0 0 0-3.166-.445c.001.023.011.038.01.062a828 828 0 0 0-.402 39.745c1.341-.04 2.676-.163 3.979-.455 7.951-1.781 14.119-8.509 15.382-16.665M356.597 37.59c-.639 13.034-10.772 23.532-23.327 24.83-9.071.938-18.853-2.74-24.72-10.004-7.165-8.87-6.741-21.816.033-30.842 7.159-9.54 20.21-13.204 31.126-8.907 10.05 3.958 17.166 13.737 16.888 24.923m-1.894 0c.291-11.71-8.119-21.584-19.066-24.167-11.124-2.626-23.445 3.196-28.266 13.921-4.125 9.178-2.272 19.75 5.134 26.46 6.243 5.658 15.324 8.041 23.457 6.234 10.327-2.296 18.208-11.577 18.741-22.448"/><path fill="#d4af37" d="M352.444 35.406c.048.674.073 1.354.056 2.042-.566 11.039-9.099 19.927-19.751 21.027-.687.07-1.379.1-2.072.11-.34.25-.845.248-1.187-.013-6.691-.248-13.405-3.298-17.677-8.601-6.084-7.552-5.654-18.575.15-26.204 6.125-8.053 17.21-11.062 26.437-7.336 7.588 3.064 13.137 10.07 13.98 18.308.091.21.111.443.064.667M315.47 51.04c3.732 3.348 8.67 5.272 13.654 5.557a827 827 0 0 1 .402-39.727c.001-.036.018-.061.022-.095-7.609.232-15.011 4.71-18.345 11.905a20.4 20.4 0 0 0-1.655 5.508c5.237 0 10.496.572 15.722.224l.004-7.86.003-4.425c0-.332.106-1.323-.177-1.448-.289-.128-1.296.463-1.615.598-4.022 1.697-7.52 4.601-10.023 8.237 1.515.236 3.035.428 4.566.527q.756.05 1.514.077c.218.008.457.042.673.02.296-.03.18.08.266-.073.152-.27.008-1.075.009-1.394l.007-1.635c.006-1.251 1.9-1.25 1.895 0l-.011 2.362c-.002.5.031 1.04-.144 1.518-.437 1.193-1.646 1.182-2.695 1.144a55.5 55.5 0 0 1-7.947-.884c-.602-.11-.864-.93-.566-1.427 2.967-4.943 7.538-8.734 12.861-10.704 1.308-.484 2.712-.376 3.146 1.203.393 1.428.135 3.169.134 4.631l-.006 10.442c0 .564-.437.925-.947.971-5.606.503-11.257-.182-16.879-.164q-.036.727-.02 1.448c.062-.009.114-.033.183-.03 5.382.234 10.776-.24 16.151.236.512.046.947.413.947.972l.005 10.105c.001 1.378.242 3.002-.125 4.346-.405 1.482-1.734 1.613-2.968 1.155-4.867-1.802-9.046-5.264-11.758-9.785-.298-.496-.036-1.316.566-1.426a51 51 0 0 1 7.257-.808c.991-.035 2.134-.025 2.536 1.106.37 1.04.139 2.465.144 3.555.006 1.252-1.889 1.25-1.894 0l-.008-1.653c-.001-.252.085-.786.019-1.088-.033-.004-.096-.022-.183.004-.205.063-.545.017-.767.025a45 45 0 0 0-1.225.064 47 47 0 0 0-4.011.458c2.263 3.242 5.401 5.82 9.002 7.35.276.117 1.26.632 1.456.575.11-.032.067-1.122.067-1.27l-.002-4.238-.004-7.552c-5.061-.349-10.138.032-15.204-.188-.015 0-.025-.008-.04-.01.531 4.353 2.549 8.46 6.008 11.561m34.914-11.546c-5.015.206-10.039-.16-15.049.185l-.004 7.552-.002 4.238c0 .307-.03.632.009.937.021.169.126.344.044.301.234.122 1.198-.428 1.47-.543 3.601-1.522 6.741-4.109 9.002-7.35a46 46 0 0 0-4.012-.458q-.688-.045-1.378-.07c-.183-.006-.438.033-.613-.019l-.157.001c-.108.882-.01 1.849-.015 2.736-.006 1.251-1.9 1.25-1.894 0 .005-1.083-.23-2.521.144-3.555.409-1.13 1.54-1.142 2.536-1.106 2.435.089 4.859.37 7.257.808.602.11.864.93.566 1.426-2.713 4.521-6.891 7.983-11.758 9.786-1.234.457-2.563.326-2.968-1.156-.366-1.34-.126-2.972-.125-4.346l.005-10.105c0-.563.437-.925.947-.971 5.375-.478 10.768-.003 16.151-.237.021-.001.036.009.056.009.002-.037.009-.073.01-.112.011-.443-.01-.879-.028-1.315-5.581-.008-11.189.663-16.754.164-.511-.046-.947-.412-.947-.971l-.006-10.442c-.001-1.468-.259-3.2.134-4.63.434-1.58 1.837-1.688 3.146-1.204 5.323 1.97 9.894 5.76 12.861 10.704.298.497.036 1.317-.566 1.427-2.626.48-5.281.788-7.947.884-1.045.037-2.264.05-2.696-1.144-.193-.532-.142-1.142-.145-1.7l-.01-2.18c-.006-1.251 1.889-1.25 1.894 0l.009 1.817c.001.268-.141 1.125.012 1.335.087.121 2.113-.126 2.449-.148 1.531-.1 3.051-.29 4.566-.527-2.505-3.639-6-6.532-10.023-8.237-.294-.125-1.376-.716-1.645-.62-.246.088-.146 1.254-.146 1.47l.002 4.426.004 7.859c5.196.346 10.425-.219 15.633-.224-1.193-8.346-7.674-15.067-15.828-16.936a19.6 19.6 0 0 0-3.166-.445c0 .023.011.038.01.062a828 828 0 0 0-.402 39.745c1.34-.04 2.676-.163 3.979-.455 7.956-1.782 14.124-8.51 15.388-16.666M295.924 37.59c-.639 13.034-10.772 23.532-23.327 24.83-9.072.938-18.853-2.74-24.72-10.004-7.165-8.87-6.741-21.816.033-30.842 7.159-9.54 20.209-13.204 31.126-8.907 10.05 3.958 17.165 13.737 16.888 24.923m-1.895 0c.291-11.71-8.119-21.584-19.066-24.167-11.124-2.626-23.445 3.196-28.266 13.92-4.125 9.178-2.272 19.751 5.134 26.46 6.243 5.658 15.324 8.041 23.457 6.234 10.327-2.294 18.209-11.576 18.741-22.447"/><path fill="#d4af37" d="M291.771 35.406c.048.674.073 1.354.056 2.041-.566 11.039-9.099 19.927-19.751 21.027-.687.072-1.379.1-2.072.11-.34.25-.845.248-1.187-.012-6.691-.248-13.405-3.3-17.677-8.601-6.084-7.552-5.654-18.575.15-26.204 6.125-8.052 17.21-11.06 26.437-7.336 7.588 3.064 13.137 10.07 13.98 18.308.09.21.11.443.064.667M254.796 51.04c3.731 3.348 8.67 5.272 13.654 5.557a827 827 0 0 1 .402-39.727c.001-.036.018-.061.022-.095-7.609.232-15.011 4.71-18.345 11.905a20.4 20.4 0 0 0-1.655 5.51c5.237-.002 10.496.571 15.722.223l.004-7.86.002-4.424c0-.333.106-1.323-.177-1.448-.289-.127-1.296.463-1.615.598-4.022 1.697-7.52 4.601-10.023 8.237 1.515.236 3.035.428 4.566.527q.756.051 1.514.078c.218.008.457.042.674.02.295-.03.179.08.265-.072.152-.27.008-1.076.009-1.395l.008-1.635c.006-1.251 1.9-1.25 1.894 0l-.011 2.362c-.002.5.031 1.041-.144 1.518-.437 1.192-1.646 1.182-2.696 1.144a56 56 0 0 1-7.947-.884c-.602-.11-.864-.93-.566-1.427 2.967-4.943 7.538-8.734 12.861-10.704 1.308-.484 2.712-.375 3.146 1.203.392 1.428.135 3.169.134 4.631l-.005 10.442c0 .564-.437.925-.947.971-5.606.503-11.256-.182-16.879-.163q-.036.726-.02 1.448c.062-.009.113-.033.183-.03 5.382.234 10.776-.24 16.151.237.511.045.947.412.947.971l.005 10.106c.001 1.377.242 3-.125 4.345-.405 1.482-1.734 1.613-2.968 1.156-4.867-1.803-9.046-5.265-11.759-9.785-.297-.497-.036-1.317.566-1.427a50.5 50.5 0 0 1 7.257-.808c.991-.035 2.134-.025 2.536 1.106.37 1.04.139 2.466.144 3.555.006 1.252-1.889 1.25-1.895 0l-.008-1.654c-.001-.252.085-.786.019-1.088-.033-.004-.096-.022-.183.004-.204.063-.544.016-.766.025q-.613.024-1.225.063c-1.345.088-2.68.255-4.012.46 2.263 3.241 5.401 5.82 9.002 7.349.276.118 1.26.632 1.456.576.11-.033.067-1.123.067-1.27l-.002-4.239-.004-7.552c-5.062-.349-10.138.032-15.204-.188-.015 0-.025-.009-.04-.01.535 4.35 2.553 8.456 6.011 11.558m34.914-11.546c-5.015.206-10.039-.16-15.049.186l-.004 7.553-.002 4.237c0 .307-.029.632.009.937.021.169.126.344.045.301.234.122 1.198-.428 1.47-.543 3.601-1.521 6.741-4.109 9.002-7.35a46 46 0 0 0-4.012-.459 49 49 0 0 0-1.378-.07c-.183-.008-.438.033-.613-.019l-.158.001c-.108.882-.01 1.849-.014 2.736-.006 1.251-1.9 1.25-1.894 0 .005-1.082-.23-2.521.144-3.555.408-1.13 1.54-1.142 2.536-1.106 2.435.089 4.859.37 7.257.808.602.11.864.93.566 1.426-2.713 4.521-6.891 7.983-11.758 9.786-1.234.457-2.563.326-2.968-1.156-.366-1.34-.126-2.972-.125-4.346l.005-10.105c0-.563.437-.926.947-.971 5.375-.478 10.769-.003 16.151-.237.022-.001.036.01.057.01q.005-.056.01-.113c.011-.443-.01-.878-.028-1.315-5.581-.008-11.189.663-16.754.163-.511-.045-.947-.412-.947-.971l-.005-10.442c-.001-1.468-.259-3.2.134-4.63.434-1.58 1.837-1.688 3.146-1.204 5.323 1.97 9.894 5.76 12.861 10.704.298.497.036 1.317-.566 1.427-2.626.48-5.281.788-7.947.884-1.045.038-2.263.05-2.696-1.144-.193-.533-.142-1.142-.145-1.7l-.01-2.18c-.006-1.253 1.889-1.25 1.895 0l.008 1.816c.001.268-.14 1.125.011 1.335.087.121 2.113-.126 2.45-.148 1.531-.1 3.051-.29 4.566-.527-2.505-3.639-6.001-6.532-10.023-8.237-.294-.125-1.375-.716-1.645-.62-.246.087-.147 1.254-.147 1.47l.003 4.425.004 7.859c5.196.346 10.426-.219 15.633-.224-1.193-8.346-7.674-15.067-15.828-16.936a19.6 19.6 0 0 0-3.166-.445c.001.023.011.04.01.062a828 828 0 0 0-.402 39.745c1.341-.04 2.676-.163 3.979-.455 7.954-1.78 14.121-8.507 15.385-16.663M99.964 92.266a132 132 0 0 0-.288 4.704 175 175 0 0 0-.048 3.456q0 1.056.048 2.016t.096 1.632h-1.104q-.768-4.032-1.968-6.384-1.152-2.352-2.784-3.312-1.632-1.008-3.84-1.008h-1.104v27.408q0 1.92.384 2.88.432.96 1.536 1.296 1.104.288 3.216.336v.96q-1.488-.048-3.984-.096a262 262 0 0 0-10.128 0q-2.352.048-3.792.096v-.96q2.16-.048 3.264-.336 1.104-.336 1.488-1.296t.384-2.88V93.37h-1.056q-2.208 0-3.84 1.008-1.632.96-2.784 3.312-1.152 2.304-2.016 6.384H70.54q.096-.672.096-1.632.048-.96.048-2.016 0-1.2-.096-3.456a83 83 0 0 0-.24-4.704q2.208.048 4.8.096 2.64.048 5.28.048h9.504q2.64 0 5.28-.048t4.752-.096m7.804 34.32q-2.16 0-3.6-.816t-2.112-2.16a6.9 6.9 0 0 1-.672-3.024q0-2.064.912-3.36a7.5 7.5 0 0 1 2.448-2.112 18 18 0 0 1 3.12-1.344 443 443 0 0 0 3.168-1.008q1.536-.528 2.448-1.2.96-.72.96-1.824v-3.744q0-1.248-.432-2.208-.384-1.008-1.248-1.536-.816-.528-2.16-.528-.96 0-1.92.288-.96.24-1.584.864 1.344.48 2.064 1.488.768.96.768 2.208 0 1.632-1.152 2.592-1.104.96-2.64.96-1.728 0-2.64-1.056-.864-1.104-.864-2.64 0-1.392.672-2.304.72-.912 1.968-1.728 1.344-.768 3.216-1.2 1.92-.432 4.128-.432t3.984.48q1.776.432 2.976 1.632 1.104 1.104 1.44 2.736.336 1.584.336 4.032v13.056q0 1.2.24 1.68.24.432.816.432.432 0 .816-.24.432-.24.912-.576l.48.816a7.4 7.4 0 0 1-2.352 1.344q-1.296.432-2.928.432-1.776 0-2.832-.48-1.056-.528-1.536-1.392-.432-.864-.432-2.016-1.152 1.824-2.784 2.88-1.632 1.008-3.984 1.008m3.408-3.072q.96 0 1.728-.432.816-.48 1.536-1.536v-9.84q-.432.72-1.2 1.296t-1.632 1.2a16 16 0 0 0-1.68 1.296 5.5 5.5 0 0 0-1.248 1.776q-.48 1.056-.48 2.544 0 1.872.816 2.784t2.16.912m32.236-22.752q2.016 0 3.264.528 1.248.48 2.016 1.344.768.912 1.104 2.4.336 1.44.336 3.84v12.912q0 2.016.624 2.736t2.16.72v1.008q-.864-.048-2.64-.096a61 61 0 0 0-3.408-.096q-1.728 0-3.408.096-1.68.048-2.544.096v-1.008q1.296 0 1.776-.72.528-.72.528-2.736v-14.928q0-1.2-.192-2.064-.192-.912-.768-1.392-.528-.528-1.632-.528-1.248 0-2.304.72t-1.728 2.016q-.624 1.248-.624 2.832v13.344q0 2.016.528 2.736t1.776.72v1.008a81 81 0 0 0-2.4-.096 54 54 0 0 0-3.264-.096q-1.824 0-3.744.096-1.92.048-2.88.096v-1.008q1.68 0 2.352-.72.72-.72.72-2.736v-15.12q0-2.16-.672-3.168-.624-1.056-2.4-1.056v-1.008q1.536.144 2.976.144a45 45 0 0 0 3.744-.144 29 29 0 0 0 3.264-.528v4.32q1.152-2.4 3.12-3.408 1.968-1.056 4.32-1.056m14.448 0q2.016 0 3.264.528 1.248.48 2.016 1.344.768.912 1.104 2.4.336 1.44.336 3.84v12.912q0 2.016.672 2.736.72.72 2.4.72v1.008q-.912-.048-2.736-.096a69 69 0 0 0-3.6-.096q-1.728 0-3.408.096-1.68.048-2.544.096v-1.008q1.296 0 1.776-.72.528-.72.528-2.736v-14.928q0-1.2-.24-2.064-.192-.912-.816-1.392-.576-.528-1.824-.528t-2.304.768-1.728 2.064q-.624 1.296-.672 2.88l-.24-2.928q1.296-2.88 3.408-3.888a10.8 10.8 0 0 1 4.608-1.008m41.072-9.168q3.264 0 5.328.912a16.9 16.9 0 0 1 3.696 2.208q.576.432.96.432.912 0 1.2-2.88h1.104a140 140 0 0 0-.144 4.56q-.048 2.64-.048 7.056h-1.104q-.336-2.88-1.056-4.992-.672-2.16-2.544-3.696-1.152-1.104-2.88-1.728a9.7 9.7 0 0 0-3.408-.624q-2.64 0-4.512 1.392-1.872 1.344-3.072 3.696t-1.776 5.328a31.5 31.5 0 0 0-.576 6.096q0 8.64 2.352 12.624 2.4 3.984 6.864 3.984 1.152 0 2.016-.288t1.392-.672q.672-.48.912-1.008.24-.576.24-1.488v-4.704q0-2.208-.384-3.264-.336-1.104-1.392-1.488t-3.072-.432v-.96q1.008.048 2.4.096 1.44 0 2.976.048h2.832q2.016 0 3.696-.048t2.736-.096v.96q-.912.048-1.392.336-.432.288-.624 1.152-.144.864-.144 2.64v9.504h-.96q-.048-.816-.384-1.776-.288-.96-1.008-.96-.336 0-.912.192-.528.144-1.68.816a25 25 0 0 1-3.744 1.728 12.7 12.7 0 0 1-4.128.672q-5.568 0-9.408-2.064t-5.808-5.904q-1.92-3.888-1.92-9.312 0-5.472 2.208-9.504 2.256-4.032 6.144-6.288 3.936-2.256 9.024-2.256m23.249-2.544q2.016 0 3.168 1.008 1.2.96 1.2 2.688t-1.2 2.736q-1.152.96-3.168.96t-3.216-.96q-1.152-1.008-1.152-2.736t1.152-2.688q1.2-1.008 3.216-1.008m3.744 11.856v20.88q0 2.016.672 2.736.72.72 2.4.72v1.008q-.864-.048-2.688-.096a70 70 0 0 0-3.696-.096q-1.872 0-3.792.096-1.92.048-2.88.096v-1.008q1.68 0 2.352-.72.72-.72.72-2.736v-15.12q0-2.16-.672-3.168-.624-1.056-2.4-1.056v-1.008q1.536.144 2.976.144a45 45 0 0 0 3.744-.144 29 29 0 0 0 3.264-.528m11.781 25.68q-2.16 0-3.6-.816t-2.112-2.16a6.9 6.9 0 0 1-.672-3.024q0-2.064.912-3.36a7.5 7.5 0 0 1 2.448-2.112 18 18 0 0 1 3.12-1.344 443 443 0 0 0 3.168-1.008q1.536-.528 2.448-1.2.96-.72.96-1.824v-3.744q0-1.248-.432-2.208-.384-1.008-1.248-1.536-.816-.528-2.16-.528-.96 0-1.92.288-.96.24-1.584.864 1.344.48 2.064 1.488.768.96.768 2.208 0 1.632-1.152 2.592-1.104.96-2.64.96-1.728 0-2.64-1.056-.864-1.104-.864-2.64 0-1.392.672-2.304.72-.912 1.968-1.728 1.344-.768 3.216-1.2 1.92-.432 4.128-.432t3.984.48q1.776.432 2.976 1.632 1.104 1.104 1.44 2.736.336 1.584.336 4.032v13.056q0 1.2.24 1.68.24.432.816.432.432 0 .816-.24.432-.24.912-.576l.48.816a7.4 7.4 0 0 1-2.352 1.344q-1.296.432-2.928.432-1.776 0-2.832-.48-1.056-.528-1.536-1.392-.432-.864-.432-2.016-1.152 1.824-2.784 2.88-1.632 1.008-3.984 1.008m3.408-3.072q.96 0 1.728-.432.816-.48 1.536-1.536v-9.84q-.432.72-1.2 1.296t-1.632 1.2a16 16 0 0 0-1.68 1.296 5.5 5.5 0 0 0-1.248 1.776q-.48 1.056-.48 2.544 0 1.872.816 2.784t2.16.912m6.528-36.48q.816.624.864 1.728t-.72 2.064a8.8 8.8 0 0 1-1.872 1.728 215 215 0 0 0-2.64 1.872q-1.488 1.104-3.6 3.072l-.528-.432q1.44-2.592 2.112-4.32.672-1.776 1.152-3.024a6.9 6.9 0 0 1 1.296-2.16q.72-.96 1.872-1.104 1.2-.192 2.064.576m20.763 13.728q1.872 0 3.408.432 1.584.384 2.592 1.008 1.248.768 1.92 1.92.72 1.104.72 2.592 0 1.68-1.056 2.784-1.056 1.056-2.736 1.056t-2.688-.96-1.008-2.592q0-1.536.96-2.544.96-1.056 2.208-1.392-.384-.48-1.152-.816t-1.728-.336q-1.488 0-2.64.864-1.104.864-1.872 2.4t-1.2 3.6q-.384 2.064-.384 4.512 0 3.696.912 5.808.96 2.112 2.4 2.976 1.488.864 3.072.864.912 0 1.968-.288 1.104-.288 2.208-1.152 1.152-.864 2.112-2.448l.816.288q-.528 1.776-1.728 3.552t-3.12 2.928q-1.92 1.104-4.704 1.104-3.12 0-5.664-1.344-2.496-1.392-4.032-4.224-1.488-2.88-1.488-7.392 0-4.32 1.536-7.248 1.584-2.976 4.272-4.464t6.096-1.488m64.296-8.496v.96q-1.536.048-2.304.384-.768.288-1.056 1.152-.24.816-.24 2.592v23.808q0 1.728.24 2.592.288.864 1.056 1.152t2.304.384v.96a50 50 0 0 0-3.408-.096q-2.016-.048-4.128-.048-2.304 0-4.32.048-2.016 0-3.264.096v-.96q1.632-.096 2.448-.384.864-.288 1.152-1.152t.288-2.592V95.194h.336l-11.904 31.104h-.768l-12.96-30.912v22.992q0 2.64.288 4.08.288 1.392 1.248 2.016 1.008.576 3.12.816v.96q-.912-.096-2.4-.096a87 87 0 0 0-2.784-.048q-1.104 0-2.256.048-1.152 0-1.92.096v-.96q1.536-.24 2.304-.816t1.008-1.872q.288-1.344.288-3.648v-21.6q0-1.776-.288-2.592-.24-.864-1.056-1.152-.768-.336-2.256-.384v-.96q.768.048 1.92.096t2.256.048q2.064 0 4.032-.048 2.016-.048 3.552-.096l10.08 24.336-1.2 1.104 9.648-25.296h3.408q2.112 0 4.128-.048 2.064-.048 3.408-.096m9.067 34.32q-2.16 0-3.6-.816t-2.112-2.16a6.9 6.9 0 0 1-.672-3.024q0-2.064.912-3.36a7.5 7.5 0 0 1 2.448-2.112 18 18 0 0 1 3.12-1.344 443 443 0 0 0 3.168-1.008q1.536-.528 2.448-1.2.96-.72.96-1.824v-3.744q0-1.248-.432-2.208-.384-1.008-1.248-1.536-.816-.528-2.16-.528-.96 0-1.92.288-.96.24-1.584.864 1.344.48 2.064 1.488.768.96.768 2.208 0 1.632-1.152 2.592-1.104.96-2.64.96-1.728 0-2.64-1.056-.864-1.104-.864-2.64 0-1.392.672-2.304.72-.912 1.968-1.728 1.344-.768 3.216-1.2 1.92-.432 4.128-.432t3.984.48q1.776.432 2.976 1.632 1.104 1.104 1.44 2.736.336 1.584.336 4.032v13.056q0 1.2.24 1.68.24.432.816.432.432 0 .816-.24.432-.24.912-.576l.48.816a7.4 7.4 0 0 1-2.352 1.344q-1.296.432-2.928.432-1.776 0-2.832-.48-1.056-.528-1.536-1.392-.432-.864-.432-2.016-1.152 1.824-2.784 2.88-1.632 1.008-3.984 1.008m3.408-3.072q.96 0 1.728-.432.816-.48 1.536-1.536v-9.84q-.432.72-1.2 1.296t-1.632 1.2a16 16 0 0 0-1.68 1.296 5.5 5.5 0 0 0-1.248 1.776q-.48 1.056-.48 2.544 0 1.872.816 2.784t2.16.912m1.2 11.712q-1.584 0-2.592-.816-.96-.816-.96-2.352 0-1.44.96-2.304t2.688-.864 2.64.816q.912.864.912 2.352t-1.008 2.304q-.96.864-2.64.864m26.092-34.464q1.872 0 3.408.432 1.584.384 2.592 1.008 1.248.768 1.92 1.92.72 1.104.72 2.592 0 1.68-1.056 2.784-1.056 1.056-2.736 1.056t-2.688-.96-1.008-2.592q0-1.536.96-2.544.96-1.056 2.208-1.392-.384-.48-1.152-.816t-1.728-.336q-1.488 0-2.64.864-1.104.864-1.872 2.4t-1.2 3.6q-.384 2.064-.384 4.512 0 3.696.912 5.808.96 2.112 2.4 2.976 1.488.864 3.072.864.912 0 1.968-.288 1.104-.288 2.208-1.152 1.152-.864 2.112-2.448l.816.288q-.528 1.776-1.728 3.552t-3.12 2.928q-1.92 1.104-4.704 1.104-3.12 0-5.664-1.344-2.496-1.392-4.032-4.224-1.488-2.88-1.488-7.392 0-4.32 1.536-7.248 1.584-2.976 4.272-4.464t6.096-1.488m21.076-12.048v16.512q1.2-2.496 3.216-3.456 2.064-1.008 4.608-1.008 2.064 0 3.312.528 1.248.48 1.968 1.344.816.912 1.152 2.352.384 1.44.384 3.888v12.912q0 2.016.672 2.736.72.72 2.4.72v1.008q-.912-.048-2.784-.096a68 68 0 0 0-7.2 0q-1.728.048-2.592.096v-1.008q1.44 0 2.016-.72t.576-2.736v-14.928q0-1.2-.24-2.064-.24-.912-.912-1.392-.624-.528-1.824-.528-1.296 0-2.4.72-1.056.672-1.728 1.92-.624 1.248-.624 2.88v13.392q0 2.016.576 2.736t2.016.72v1.008q-.864-.048-2.544-.096a60 60 0 0 0-3.408-.096q-1.872 0-3.792.096a127 127 0 0 0-2.832.096v-1.008q1.68 0 2.352-.72.72-.72.72-2.736V94.474q0-2.16-.672-3.168-.624-1.056-2.4-1.056v-1.008q1.536.144 2.976.144 1.968 0 3.744-.144a29 29 0 0 0 3.264-.528M240.5 143.562h239.617v-5.312H240.5zM240.5 147.925h239.617v-1.842H240.5zM240.5 211.754h239.617v-9.193H240.5zM242.672 174.661c.639-12.945 10.772-23.372 23.327-24.662 9.071-.932 18.853 2.721 24.72 9.936 7.165 8.811 6.741 21.669-.033 30.634-7.159 9.475-20.21 13.115-31.126 8.846-10.049-3.929-17.165-13.642-16.888-24.754m1.895 0c-.291 11.632 8.119 21.438 19.066 24.005 11.124 2.608 23.445-3.174 28.266-13.826 4.125-9.116 2.272-19.618-5.134-26.283-6.243-5.618-15.324-7.986-23.457-6.191-10.327 2.28-18.208 11.499-18.741 22.295"/><path fill="#d4af37" d="M246.826 176.832a21 21 0 0 1-.057-2.029c.566-10.964 9.099-19.792 19.751-20.885.687-.07 1.379-.099 2.072-.108a1.02 1.02 0 0 1 1.187.012c6.691.246 13.405 3.277 17.677 8.543 6.084 7.501 5.654 18.449-.15 26.027-6.125 7.998-17.21 10.986-26.437 7.286-7.588-3.043-13.137-10.002-13.98-18.184-.09-.208-.11-.44-.063-.662m36.974-15.53c-3.732-3.325-8.67-5.236-13.654-5.519.182 13.155.052 26.31-.402 39.458-.001.036-.018.061-.022.095 7.609-.23 15.011-4.68 18.345-11.825a20.1 20.1 0 0 0 1.655-5.471c-5.237.001-10.496-.568-15.722-.222l-.004 7.806-.002 4.395c0 .331-.106 1.314.177 1.438.289.127 1.296-.46 1.615-.593 4.022-1.686 7.52-4.57 10.023-8.182a51 51 0 0 0-4.566-.524 55 55 0 0 0-1.514-.077c-.218-.008-.457-.042-.674-.02-.296.03-.179-.08-.265.072-.152.268-.008 1.069-.009 1.385l-.008 1.624c-.006 1.243-1.9 1.242-1.895 0l.011-2.345c.002-.497-.031-1.034.144-1.508.437-1.185 1.646-1.174 2.696-1.136a56 56 0 0 1 7.947.878c.602.109.864.924.566 1.417-2.967 4.91-7.538 8.675-12.861 10.632-1.309.481-2.712.373-3.146-1.195-.392-1.418-.135-3.147-.134-4.6l.005-10.371c0-.559.437-.919.947-.964 5.606-.499 11.256.181 16.879.162q.036-.72.02-1.437c-.062.009-.113.033-.183.03-5.383-.232-10.776.239-16.151-.235-.511-.045-.947-.41-.947-.965l-.005-10.037c-.001-1.368-.242-2.981.125-4.315.405-1.472 1.734-1.602 2.968-1.148a23.1 23.1 0 0 1 11.758 9.719c.298.493.036 1.308-.566 1.417a51 51 0 0 1-7.257.802c-.991.035-2.134.025-2.536-1.098-.37-1.033-.138-2.449-.143-3.531-.006-1.244 1.889-1.241 1.894 0l.008 1.643c.001.25-.085.78-.019 1.079.033.004.096.022.183-.004.204-.062.545-.015.766-.024q.613-.024 1.225-.064a47 47 0 0 0 4.011-.456c-2.263-3.22-5.401-5.781-9.002-7.3-.276-.116-1.26-.628-1.456-.571-.11.031-.067 1.115-.067 1.262l.002 4.209.004 7.501c5.062.347 10.138-.031 15.204.187.015.001.025.009.04.01-.531-4.325-2.55-8.403-6.008-11.484m-34.914 11.468c5.015-.204 10.039.159 15.049-.185l.004-7.501.002-4.209c0-.305.03-.628-.009-.931-.021-.167-.126-.342-.045-.3-.234-.121-1.198.426-1.47.54-3.601 1.511-6.741 4.081-9.003 7.3 1.331.203 2.667.368 4.012.456q.689.045 1.378.07c.183.007.438-.033.613.018l.158-.001c.108-.876.01-1.835.014-2.717.006-1.243 1.9-1.242 1.895 0-.005 1.075.23 2.504-.143 3.531-.409 1.123-1.54 1.134-2.536 1.098a51 51 0 0 1-7.257-.802c-.602-.109-.864-.924-.566-1.417a23.1 23.1 0 0 1 11.758-9.719c1.234-.454 2.563-.324 2.968 1.148.366 1.331.126 2.952.125 4.315l-.005 10.037c0 .559-.437.919-.947.965-5.375.474-10.769.003-16.151.235-.021.001-.036-.009-.056-.009-.002.037-.009.073-.01.111-.011.44.01.873.028 1.306 5.581.009 11.189-.657 16.754-.162.511.045.947.409.947.964l.005 10.371c.001 1.458.259 3.178-.134 4.6-.434 1.568-1.837 1.676-3.146 1.195-5.323-1.957-9.894-5.722-12.861-10.632-.297-.493-.036-1.308.566-1.417a56 56 0 0 1 7.947-.878c1.045-.037 2.264-.048 2.696 1.136.193.529.142 1.134.145 1.688l.01 2.165c.006 1.244-1.889 1.241-1.894 0l-.009-1.804c-.001-.266.141-1.117-.011-1.326-.087-.12-2.113.125-2.45.147a51 51 0 0 0-4.566.524c2.505 3.613 6.001 6.488 10.023 8.182.294.124 1.376.711 1.645.616.245-.087.146-1.246.146-1.46l-.002-4.395-.004-7.806c-5.196-.344-10.425.217-15.633.222 1.193 8.29 7.674 14.966 15.828 16.822 1.046.238 2.105.376 3.166.442 0-.023-.011-.039-.01-.062a817 817 0 0 0 .402-39.476c-1.341.039-2.676.162-3.979.452-7.956 1.77-14.123 8.452-15.387 16.553M303.346 174.661c.639-12.946 10.772-23.373 23.327-24.662 9.072-.932 18.853 2.721 24.72 9.936 7.165 8.81 6.741 21.669-.033 30.634-7.159 9.475-20.21 13.115-31.126 8.847-10.05-3.93-17.166-13.643-16.888-24.755m1.894 0c-.291 11.632 8.119 21.438 19.066 24.005 11.124 2.608 23.445-3.174 28.266-13.826 4.125-9.116 2.272-19.618-5.134-26.283-6.243-5.618-15.324-7.986-23.457-6.191-10.326 2.28-18.208 11.499-18.741 22.295"/><path fill="#d4af37" d="M307.499 176.832a21 21 0 0 1-.056-2.029c.566-10.964 9.099-19.792 19.751-20.885.687-.07 1.379-.099 2.072-.108a1.02 1.02 0 0 1 1.187.011c6.691.246 13.406 3.277 17.677 8.543 6.084 7.501 5.654 18.449-.15 26.027-6.125 7.998-17.21 10.986-26.437 7.286-7.588-3.043-13.137-10.002-13.98-18.184a1.1 1.1 0 0 1-.064-.661m36.975-15.53c-3.731-3.325-8.67-5.236-13.654-5.519.182 13.155.052 26.31-.402 39.458-.001.036-.018.061-.022.095 7.609-.23 15.011-4.679 18.345-11.825a20.1 20.1 0 0 0 1.655-5.471c-5.237.001-10.496-.568-15.722-.222l-.004 7.806-.002 4.395c0 .331-.106 1.314.177 1.438.289.127 1.297-.46 1.615-.594 4.022-1.685 7.52-4.57 10.023-8.181a51 51 0 0 0-4.566-.524 51 51 0 0 0-1.514-.076c-.218-.008-.457-.042-.674-.02-.296.03-.18-.08-.266.072-.152.268-.008 1.068-.009 1.385l-.008 1.624c-.006 1.243-1.9 1.242-1.894 0l.011-2.345c.002-.497-.031-1.034.144-1.508.437-1.185 1.647-1.174 2.695-1.136 2.666.097 5.321.402 7.947.878.602.109.864.924.566 1.417-2.967 4.91-7.538 8.675-12.86 10.632-1.308.481-2.712.373-3.146-1.195-.392-1.418-.135-3.147-.134-4.6l.006-10.371c0-.56.437-.919.947-.965 5.606-.499 11.256.181 16.879.162q.036-.72.02-1.438c-.062.009-.113.033-.183.03-5.383-.232-10.776.239-16.151-.235-.511-.045-.947-.41-.947-.965l-.005-10.037c-.001-1.368-.242-2.981.125-4.316.405-1.472 1.734-1.602 2.968-1.148a23.1 23.1 0 0 1 11.758 9.719c.298.493.036 1.308-.566 1.417a51 51 0 0 1-7.257.802c-.991.035-2.133.025-2.536-1.098-.37-1.033-.139-2.449-.144-3.531-.006-1.244 1.889-1.241 1.894 0l.008 1.643c.001.25-.085.78-.019 1.079.033.004.096.022.183-.004.204-.062.544-.015.766-.024q.613-.024 1.225-.063a47 47 0 0 0 4.012-.456c-2.263-3.221-5.401-5.781-9.002-7.3-.276-.116-1.26-.628-1.456-.572-.11.032-.067 1.115-.067 1.262l.002 4.209.004 7.501c5.062.347 10.138-.031 15.205.187.015 0 .025.008.04.01-.533-4.323-2.552-8.401-6.01-11.482M309.56 172.77c5.015-.204 10.039.159 15.049-.185l.004-7.501.002-4.209c0-.305.029-.628-.009-.931-.021-.167-.127-.342-.045-.299-.234-.121-1.198.426-1.47.54-3.6 1.511-6.741 4.081-9.002 7.3 1.331.203 2.667.368 4.011.456q.689.045 1.378.07c.183.007.438-.033.613.018l.157-.001c.108-.876.01-1.836.014-2.717.006-1.243 1.9-1.242 1.894 0-.005 1.075.23 2.504-.144 3.531-.408 1.123-1.539 1.134-2.536 1.098a51 51 0 0 1-7.257-.802c-.602-.109-.864-.924-.566-1.417a23.1 23.1 0 0 1 11.758-9.719c1.234-.454 2.563-.324 2.968 1.148.366 1.331.126 2.952.125 4.316l-.005 10.037c0 .56-.437.92-.947.965-5.375.474-10.769.003-16.151.235-.022.001-.036-.009-.057-.009-.002.037-.009.073-.01.111-.011.44.01.873.028 1.306 5.581.009 11.189-.657 16.754-.162.511.045.947.41.947.965l.005 10.371c.001 1.458.259 3.178-.134 4.6-.434 1.568-1.837 1.676-3.146 1.195-5.323-1.957-9.894-5.722-12.861-10.632-.298-.493-.036-1.308.566-1.417a56 56 0 0 1 7.947-.878c1.045-.037 2.263-.048 2.696 1.136.193.529.142 1.134.144 1.688l.01 2.165c.006 1.244-1.889 1.241-1.895 0l-.008-1.804c-.001-.266.14-1.117-.012-1.326-.087-.12-2.113.125-2.45.146a51 51 0 0 0-4.566.524c2.505 3.613 6 6.488 10.023 8.181.294.124 1.376.711 1.645.616.246-.087.147-1.245.147-1.46l-.002-4.395-.004-7.806c-5.196-.344-10.425.217-15.633.222 1.193 8.29 7.674 14.966 15.828 16.822 1.046.238 2.105.377 3.166.442-.001-.023-.011-.038-.01-.062.454-13.154.584-26.315.402-39.476-1.341.039-2.676.162-3.979.452-7.951 1.769-14.119 8.451-15.382 16.552M364.02 174.662c.639-12.946 10.772-23.373 23.327-24.662 9.071-.932 18.853 2.721 24.72 9.936 7.165 8.81 6.741 21.669-.033 30.634-7.159 9.475-20.21 13.115-31.126 8.847-10.051-3.931-17.166-13.644-16.888-24.755m1.894 0c-.291 11.631 8.119 21.438 19.066 24.004 11.124 2.608 23.445-3.174 28.266-13.827 4.125-9.116 2.272-19.617-5.134-26.282-6.243-5.619-15.324-7.986-23.457-6.191-10.327 2.28-18.208 11.499-18.741 22.296"/><path fill="#d4af37" d="M368.172 176.832a21 21 0 0 1-.056-2.029c.566-10.964 9.099-19.792 19.751-20.885.687-.07 1.379-.099 2.072-.108.34-.25.845-.247 1.187.012 6.691.246 13.405 3.276 17.677 8.543 6.084 7.501 5.654 18.449-.15 26.027-6.125 7.998-17.21 10.987-26.437 7.286-7.588-3.043-13.137-10.002-13.98-18.184-.09-.208-.11-.44-.064-.662m36.975-15.53c-3.732-3.325-8.67-5.236-13.654-5.519a816 816 0 0 1-.402 39.458c-.001.036-.018.061-.022.095 7.609-.231 15.011-4.679 18.345-11.825a20.2 20.2 0 0 0 1.655-5.471c-5.237.001-10.496-.568-15.722-.222l-.004 7.806-.003 4.396c0 .33-.106 1.314.177 1.438.289.127 1.296-.46 1.615-.594 4.022-1.685 7.52-4.57 10.023-8.181a51 51 0 0 0-4.566-.524 51 51 0 0 0-1.514-.076c-.218-.008-.457-.042-.673-.02-.296.03-.18-.08-.266.072-.152.268-.008 1.068-.009 1.385l-.007 1.624c-.006 1.243-1.9 1.241-1.895 0l.011-2.346c.002-.497-.031-1.034.144-1.508.437-1.185 1.646-1.174 2.695-1.136a56 56 0 0 1 7.947.878c.602.109.864.924.566 1.417-2.967 4.91-7.538 8.675-12.861 10.632-1.308.481-2.712.373-3.146-1.195-.393-1.418-.135-3.147-.134-4.6l.006-10.371c0-.56.437-.919.947-.965 5.606-.499 11.257.181 16.879.163q.036-.721.02-1.438c-.062.009-.113.033-.183.03-5.383-.232-10.776.239-16.151-.235-.512-.045-.947-.41-.947-.965l-.005-10.037c-.001-1.368-.242-2.981.125-4.316.405-1.472 1.734-1.602 2.968-1.148a23.1 23.1 0 0 1 11.758 9.719c.298.493.036 1.308-.566 1.417a51 51 0 0 1-7.257.802c-.991.035-2.134.025-2.536-1.098-.37-1.033-.139-2.449-.144-3.531-.006-1.244 1.889-1.241 1.894 0l.008 1.642c.001.25-.085.78-.019 1.08.033.004.096.022.183-.004.205-.062.545-.016.766-.024q.613-.024 1.225-.064a47 47 0 0 0 4.012-.455c-2.263-3.22-5.401-5.781-9.002-7.3-.276-.116-1.26-.628-1.456-.571-.11.031-.067 1.114-.067 1.261l.002 4.209.004 7.501c5.061.347 10.138-.031 15.204.187.015.001.025.008.04.01-.531-4.324-2.55-8.402-6.008-11.483m-34.914 11.468c5.015-.204 10.039.159 15.049-.184l.004-7.501.002-4.209c0-.305.029-.628-.009-.931-.021-.167-.126-.341-.044-.299-.234-.121-1.198.426-1.47.54-3.601 1.511-6.741 4.081-9.003 7.3 1.331.203 2.667.368 4.012.455q.689.045 1.378.07c.183.006.438-.033.613.018l.157-.001c.108-.876.01-1.836.014-2.717.006-1.243 1.9-1.242 1.895 0-.005 1.075.23 2.504-.144 3.531-.409 1.123-1.54 1.134-2.536 1.098a51 51 0 0 1-7.257-.802c-.602-.109-.864-.924-.566-1.417a23.1 23.1 0 0 1 11.758-9.719c1.234-.454 2.563-.324 2.968 1.148.366 1.331.126 2.952.125 4.316l-.005 10.037c0 .559-.437.919-.947.965-5.375.474-10.768.003-16.151.235-.021.001-.036-.009-.056-.009q-.005.055-.01.111c-.011.44.01.873.028 1.306 5.581.008 11.189-.658 16.754-.163.511.046.947.41.947.965l.006 10.371c.001 1.458.259 3.178-.134 4.6-.434 1.568-1.837 1.676-3.146 1.195-5.323-1.957-9.894-5.722-12.861-10.632-.298-.493-.036-1.308.566-1.417a56 56 0 0 1 7.947-.878c1.045-.037 2.263-.049 2.695 1.136.193.529.142 1.134.145 1.689l.01 2.165c.006 1.243-1.889 1.241-1.894 0l-.008-1.805c-.001-.266.141-1.117-.011-1.326-.087-.12-2.113.125-2.45.147a51 51 0 0 0-4.566.524c2.505 3.614 6 6.488 10.023 8.181.294.124 1.376.711 1.645.616.246-.087.146-1.246.146-1.46l-.002-4.396-.004-7.806c-5.196-.344-10.425.217-15.633.222 1.193 8.29 7.674 14.966 15.828 16.822 1.046.238 2.105.377 3.166.442 0-.023-.011-.038-.01-.062.454-13.154.584-26.316.402-39.476-1.34.039-2.676.162-3.979.452-7.956 1.77-14.123 8.452-15.387 16.553M424.693 174.662c.639-12.946 10.772-23.373 23.327-24.662 9.072-.932 18.853 2.721 24.72 9.936 7.165 8.81 6.741 21.669-.033 30.634-7.159 9.475-20.21 13.115-31.126 8.847-10.05-3.931-17.166-13.644-16.888-24.755m1.895 0c-.291 11.631 8.119 21.438 19.066 24.004 11.124 2.608 23.445-3.174 28.266-13.826 4.125-9.116 2.272-19.618-5.134-26.282-6.243-5.619-15.324-7.986-23.457-6.191-10.327 2.279-18.209 11.498-18.741 22.295"/><path fill="#d4af37" d="M428.846 176.832a21 21 0 0 1-.057-2.028c.566-10.964 9.099-19.792 19.751-20.885a23 23 0 0 1 2.072-.108 1.02 1.02 0 0 1 1.187.011c6.691.246 13.405 3.277 17.677 8.543 6.084 7.501 5.654 18.449-.15 26.027-6.125 7.998-17.21 10.986-26.437 7.286-7.588-3.043-13.137-10.002-13.98-18.184a1.1 1.1 0 0 1-.063-.662m36.975-15.53c-3.731-3.325-8.67-5.236-13.654-5.519a816 816 0 0 1-.402 39.458c-.001.036-.018.061-.022.095 7.609-.231 15.011-4.679 18.345-11.825a20.2 20.2 0 0 0 1.655-5.472c-5.237.001-10.496-.568-15.722-.222l-.004 7.806-.002 4.395c0 .331-.106 1.314.177 1.438.289.126 1.296-.46 1.615-.594 4.022-1.685 7.52-4.57 10.023-8.181a51 51 0 0 0-4.566-.524 51 51 0 0 0-1.514-.077c-.218-.008-.457-.042-.674-.02-.295.03-.179-.08-.265.072-.152.268-.008 1.068-.009 1.385l-.008 1.624c-.006 1.243-1.9 1.242-1.894 0l.011-2.346c.002-.497-.031-1.034.144-1.508.437-1.184 1.647-1.174 2.696-1.136 2.666.097 5.321.402 7.947.878.602.109.864.924.566 1.417-2.967 4.91-7.538 8.675-12.861 10.632-1.308.481-2.712.373-3.146-1.195-.392-1.418-.135-3.147-.134-4.6l.005-10.371c0-.56.437-.919.947-.965 5.606-.499 11.256.181 16.879.162q.036-.72.02-1.438c-.062.009-.113.033-.183.03-5.383-.232-10.776.239-16.151-.235-.511-.045-.947-.41-.947-.965l-.005-10.037c-.001-1.368-.242-2.981.125-4.316.405-1.472 1.734-1.602 2.968-1.148a23.1 23.1 0 0 1 11.758 9.719c.297.493.036 1.308-.566 1.417a51 51 0 0 1-7.257.802c-.991.035-2.134.025-2.536-1.098-.37-1.033-.139-2.449-.144-3.531-.006-1.244 1.889-1.241 1.894 0l.008 1.643c.001.25-.085.78-.019 1.08.033.004.096.022.183-.004.204-.062.544-.015.766-.024q.613-.024 1.225-.063a47 47 0 0 0 4.012-.456c-2.263-3.22-5.401-5.781-9.003-7.3-.276-.117-1.26-.628-1.456-.572-.11.032-.067 1.115-.067 1.262l.002 4.209.004 7.501c5.062.347 10.138-.031 15.205.187.015.001.025.009.039.01-.532-4.321-2.55-8.399-6.008-11.48m-34.914 11.468c5.015-.204 10.039.159 15.049-.185l.004-7.501.002-4.209c0-.305.029-.628-.009-.931-.021-.167-.126-.341-.045-.299-.234-.121-1.198.426-1.47.54-3.6 1.511-6.741 4.081-9.002 7.3 1.331.203 2.667.369 4.011.456q.689.045 1.378.07c.183.007.438-.033.613.018l.158-.001c.108-.876.01-1.836.014-2.717.006-1.243 1.9-1.242 1.894 0-.005 1.075.23 2.504-.144 3.531-.408 1.123-1.539 1.134-2.536 1.098a51 51 0 0 1-7.257-.802c-.602-.109-.864-.924-.566-1.417a23.1 23.1 0 0 1 11.758-9.719c1.234-.454 2.563-.324 2.968 1.148.366 1.331.126 2.952.125 4.316l-.005 10.037c0 .559-.437.92-.947.965-5.375.474-10.769.003-16.151.235-.022.001-.036-.009-.056-.009-.002.037-.009.073-.01.111-.011.44.01.872.028 1.306 5.581.008 11.189-.658 16.754-.162.511.045.947.41.947.965l.005 10.371c.001 1.458.259 3.178-.134 4.6-.434 1.568-1.837 1.676-3.146 1.195-5.323-1.957-9.894-5.722-12.861-10.632-.298-.493-.036-1.308.566-1.417a56 56 0 0 1 7.947-.878c1.045-.038 2.263-.049 2.696 1.136.193.53.142 1.134.145 1.689l.01 2.165c.006 1.244-1.889 1.241-1.895 0l-.008-1.804c-.001-.266.14-1.117-.012-1.326-.087-.12-2.113.125-2.45.147a51 51 0 0 0-4.566.524c2.505 3.614 6 6.488 10.023 8.181.294.124 1.376.711 1.645.616.246-.086.147-1.246.147-1.46l-.003-4.395-.004-7.806c-5.196-.344-10.425.217-15.633.222 1.193 8.29 7.674 14.966 15.828 16.822a19.7 19.7 0 0 0 3.166.442c-.001-.023-.011-.039-.01-.062.454-13.154.584-26.316.402-39.476-1.341.039-2.676.162-3.979.452-7.953 1.767-14.121 8.449-15.384 16.55M.883 143.562H240.5v-5.312H.883zM.883 147.925H240.5v-1.842H.883zM.883 211.754H240.5v-9.193H.883zM3.056 174.661c.639-12.945 10.772-23.372 23.327-24.662 9.071-.932 18.853 2.721 24.72 9.936 7.165 8.811 6.741 21.669-.033 30.634-7.159 9.475-20.21 13.115-31.126 8.846-10.05-3.929-17.166-13.642-16.888-24.754m1.894 0c-.29 11.632 8.12 21.438 19.066 24.005 11.124 2.608 23.445-3.174 28.266-13.826 4.125-9.116 2.272-19.618-5.134-26.283-6.243-5.618-15.324-7.986-23.457-6.191-10.327 2.28-18.208 11.499-18.74 22.295"/><path fill="#d4af37" d="M7.21 176.832a21 21 0 0 1-.058-2.029c.566-10.964 9.1-19.792 19.751-20.885.687-.07 1.38-.099 2.072-.108a1.02 1.02 0 0 1 1.187.012c6.691.246 13.405 3.277 17.677 8.543 6.084 7.501 5.654 18.449-.15 26.027-6.125 7.998-17.21 10.986-26.437 7.286-7.588-3.043-13.137-10.002-13.98-18.184-.09-.208-.11-.44-.063-.662m36.974-15.53c-3.732-3.325-8.67-5.236-13.654-5.519.182 13.155.052 26.31-.402 39.458-.001.036-.018.061-.022.095 7.61-.23 15.011-4.68 18.345-11.825a20.1 20.1 0 0 0 1.655-5.471c-5.237.001-10.496-.568-15.722-.222l-.004 7.806-.002 4.395c0 .331-.106 1.314.177 1.438.289.127 1.296-.46 1.615-.593 4.022-1.686 7.52-4.57 10.023-8.182a51 51 0 0 0-4.566-.524 55 55 0 0 0-1.514-.077c-.218-.008-.457-.042-.674-.02-.296.03-.179-.08-.265.072-.152.268-.008 1.069-.009 1.385l-.008 1.624c-.006 1.243-1.9 1.242-1.894 0l.011-2.345c.002-.497-.03-1.034.144-1.508.437-1.185 1.646-1.174 2.696-1.136a56 56 0 0 1 7.947.878c.602.109.864.924.566 1.417-2.967 4.91-7.538 8.675-12.86 10.632-1.309.481-2.712.373-3.146-1.195-.392-1.418-.135-3.147-.134-4.6l.005-10.371c0-.559.437-.919.947-.964 5.606-.499 11.256.181 16.88.162q.035-.72.019-1.437c-.062.009-.113.033-.183.03-5.382-.232-10.776.239-16.151-.235-.511-.045-.947-.41-.947-.965l-.005-10.037c-.001-1.368-.242-2.981.125-4.315.405-1.472 1.734-1.602 2.968-1.148a23.1 23.1 0 0 1 11.758 9.719c.298.493.036 1.308-.566 1.417a51 51 0 0 1-7.257.802c-.99.035-2.134.025-2.536-1.098-.37-1.033-.139-2.449-.144-3.531-.006-1.244 1.889-1.241 1.894 0l.008 1.643c.001.25-.085.78-.019 1.079.033.004.096.022.184-.004.204-.062.545-.015.766-.024q.613-.024 1.225-.064a47 47 0 0 0 4.011-.456c-2.263-3.22-5.401-5.781-9.002-7.3-.276-.116-1.26-.628-1.456-.571-.11.031-.068 1.115-.067 1.262l.002 4.209.004 7.501c5.061.347 10.137-.031 15.204.187.015.001.025.009.04.01-.534-4.325-2.552-8.403-6.01-11.484M9.27 172.77c5.015-.204 10.04.159 15.05-.185q0-3.751.003-7.501l.002-4.209c0-.305.029-.628-.009-.931-.021-.167-.126-.342-.045-.3-.234-.121-1.198.426-1.47.54-3.601 1.511-6.741 4.081-9.003 7.3 1.331.203 2.667.368 4.012.456q.69.045 1.378.07c.183.007.438-.033.613.018l.158-.001c.108-.876.01-1.835.014-2.717.006-1.243 1.9-1.242 1.895 0-.005 1.075.23 2.504-.144 3.531-.409 1.123-1.54 1.134-2.536 1.098a51 51 0 0 1-7.257-.802c-.602-.109-.864-.924-.566-1.417a23.1 23.1 0 0 1 11.758-9.719c1.234-.454 2.563-.324 2.968 1.148.366 1.331.126 2.952.125 4.315l-.005 10.037c0 .559-.437.919-.947.965-5.375.474-10.769.003-16.151.235-.021.001-.036-.009-.056-.009-.002.037-.009.073-.01.111-.011.44.01.873.028 1.306 5.581.009 11.189-.657 16.754-.162.511.045.947.409.947.964l.005 10.371c.001 1.458.259 3.178-.134 4.6-.434 1.568-1.837 1.676-3.146 1.195-5.323-1.957-9.894-5.722-12.861-10.632-.298-.493-.036-1.308.566-1.417a56 56 0 0 1 7.947-.878c1.045-.037 2.264-.048 2.696 1.136.193.529.142 1.134.145 1.688l.01 2.165c.006 1.244-1.889 1.241-1.894 0l-.009-1.804c0-.266.141-1.117-.01-1.326-.088-.12-2.114.125-2.451.147a51 51 0 0 0-4.566.524c2.505 3.613 6.001 6.488 10.023 8.182.294.124 1.376.711 1.645.616.245-.087.146-1.246.146-1.46l-.002-4.395-.004-7.806c-5.196-.344-10.425.217-15.633.222 1.193 8.29 7.674 14.966 15.828 16.822 1.046.238 2.105.376 3.166.442 0-.023-.011-.039-.01-.062a817 817 0 0 0 .402-39.476c-1.34.039-2.676.162-3.979.452-7.954 1.77-14.122 8.452-15.386 16.553M63.729 174.661c.639-12.946 10.772-23.373 23.327-24.662 9.072-.932 18.853 2.721 24.72 9.936 7.165 8.81 6.741 21.669-.033 30.634-7.159 9.475-20.209 13.115-31.126 8.847-10.05-3.93-17.165-13.643-16.888-24.755m1.895 0c-.291 11.632 8.12 21.438 19.066 24.005 11.124 2.608 23.445-3.174 28.266-13.826 4.125-9.116 2.272-19.618-5.134-26.283-6.243-5.618-15.324-7.986-23.457-6.191-10.327 2.28-18.208 11.499-18.741 22.295"/><path fill="#d4af37" d="M67.882 176.832a21 21 0 0 1-.056-2.029c.566-10.964 9.099-19.792 19.751-20.885.687-.07 1.379-.099 2.072-.108a1.02 1.02 0 0 1 1.187.011c6.691.246 13.406 3.277 17.677 8.543 6.084 7.501 5.654 18.449-.15 26.027-6.125 7.998-17.21 10.986-26.437 7.286-7.588-3.043-13.137-10.002-13.98-18.184a1.1 1.1 0 0 1-.064-.661m36.975-15.53c-3.731-3.325-8.67-5.236-13.654-5.519.182 13.155.052 26.31-.402 39.458-.001.036-.018.061-.022.095 7.609-.23 15.011-4.679 18.345-11.825a20.1 20.1 0 0 0 1.655-5.471c-5.237.001-10.496-.568-15.722-.222l-.004 7.806-.002 4.395c0 .331-.106 1.314.177 1.438.289.127 1.297-.46 1.615-.594 4.022-1.685 7.52-4.57 10.023-8.181a51 51 0 0 0-4.566-.524 51 51 0 0 0-1.514-.076c-.218-.008-.457-.042-.674-.02-.296.03-.18-.08-.266.072-.152.268-.007 1.068-.009 1.385l-.008 1.624c-.006 1.243-1.9 1.242-1.894 0l.011-2.345c.002-.497-.03-1.034.144-1.508.437-1.185 1.646-1.174 2.695-1.136 2.666.097 5.321.402 7.947.878.602.109.864.924.566 1.417-2.967 4.91-7.538 8.675-12.86 10.632-1.309.481-2.712.373-3.146-1.195-.392-1.418-.135-3.147-.134-4.6l.006-10.371c0-.56.437-.919.947-.965 5.606-.499 11.256.181 16.879.162q.037-.72.02-1.438c-.062.009-.113.033-.183.03-5.382-.232-10.776.239-16.151-.235-.511-.045-.947-.41-.947-.965l-.005-10.037c-.001-1.368-.242-2.981.125-4.316.405-1.472 1.734-1.602 2.968-1.148a23.1 23.1 0 0 1 11.758 9.719c.298.493.036 1.308-.566 1.417a51 51 0 0 1-7.257.802c-.99.035-2.133.025-2.536-1.098-.37-1.033-.139-2.449-.144-3.531-.006-1.244 1.889-1.241 1.895 0l.007 1.643c.001.25-.085.78-.019 1.079.033.004.096.022.183-.004.204-.062.544-.015.766-.024q.613-.024 1.225-.063a47 47 0 0 0 4.012-.456c-2.263-3.221-5.401-5.781-9.002-7.3-.276-.116-1.26-.628-1.456-.572-.11.032-.067 1.115-.067 1.262l.002 4.209.004 7.501c5.062.347 10.138-.031 15.205.187.015 0 .025.008.04.01-.533-4.323-2.552-8.401-6.01-11.482M69.943 172.77c5.015-.204 10.039.159 15.049-.185l.004-7.501.002-4.209c0-.305.029-.628-.009-.931-.021-.167-.127-.342-.045-.299-.234-.121-1.198.426-1.47.54-3.6 1.511-6.741 4.081-9.002 7.3 1.331.203 2.667.368 4.011.456q.69.045 1.378.07c.183.007.438-.033.613.018l.157-.001c.108-.876.01-1.836.014-2.717.006-1.243 1.9-1.242 1.894 0-.005 1.075.23 2.504-.144 3.531-.408 1.123-1.539 1.134-2.536 1.098a51 51 0 0 1-7.257-.802c-.602-.109-.864-.924-.566-1.417a23.12 23.12 0 0 1 11.758-9.719c1.234-.454 2.563-.324 2.968 1.148.366 1.331.126 2.952.125 4.316l-.005 10.037c0 .56-.437.92-.947.965-5.375.474-10.769.003-16.151.235-.022.001-.036-.009-.057-.009q-.005.055-.01.111c-.011.44.01.873.028 1.306 5.581.009 11.189-.657 16.754-.162.511.045.947.41.947.965l.005 10.371c.001 1.458.259 3.178-.134 4.6-.434 1.568-1.837 1.676-3.146 1.195-5.323-1.957-9.894-5.722-12.861-10.632-.298-.493-.036-1.308.566-1.417a56 56 0 0 1 7.947-.878c1.045-.037 2.263-.048 2.696 1.136.193.529.142 1.134.144 1.688l.01 2.165c.006 1.244-1.889 1.241-1.895 0l-.008-1.804c-.001-.266.14-1.117-.012-1.326-.087-.12-2.113.125-2.45.146a52 52 0 0 0-4.566.524c2.505 3.613 6 6.488 10.023 8.181.294.124 1.376.711 1.645.616.246-.087.147-1.245.147-1.46l-.002-4.395-.004-7.806c-5.196-.344-10.426.217-15.633.222 1.193 8.29 7.674 14.966 15.828 16.822 1.046.238 2.105.377 3.166.442 0-.023-.01-.038-.01-.062.454-13.154.584-26.315.402-39.476-1.34.039-2.676.162-3.979.452-7.95 1.769-14.119 8.451-15.382 16.552M124.403 174.662c.639-12.946 10.772-23.373 23.327-24.662 9.071-.932 18.853 2.721 24.72 9.936 7.165 8.81 6.741 21.669-.033 30.634-7.159 9.475-20.21 13.115-31.126 8.847-10.05-3.931-17.166-13.644-16.888-24.755m1.894 0c-.291 11.631 8.119 21.438 19.066 24.004 11.124 2.608 23.445-3.174 28.266-13.827 4.125-9.116 2.272-19.617-5.134-26.282-6.243-5.619-15.324-7.986-23.457-6.191-10.327 2.28-18.208 11.499-18.741 22.296"/><path fill="#d4af37" d="M128.556 176.832a21 21 0 0 1-.056-2.029c.566-10.964 9.099-19.792 19.751-20.885.687-.07 1.379-.099 2.072-.108.34-.25.845-.247 1.187.012 6.691.246 13.405 3.276 17.677 8.543 6.084 7.501 5.654 18.449-.15 26.027-6.125 7.998-17.21 10.987-26.437 7.286-7.588-3.043-13.137-10.002-13.98-18.184a1.1 1.1 0 0 1-.064-.662m36.974-15.53c-3.732-3.325-8.67-5.236-13.654-5.519a816 816 0 0 1-.402 39.458c-.001.036-.018.061-.022.095 7.609-.231 15.011-4.679 18.345-11.825a20.2 20.2 0 0 0 1.655-5.471c-5.237.001-10.496-.568-15.722-.222l-.004 7.806-.003 4.396c0 .33-.106 1.314.177 1.438.289.127 1.296-.46 1.615-.594 4.022-1.685 7.52-4.57 10.023-8.181a51 51 0 0 0-4.566-.524 51 51 0 0 0-1.514-.076c-.218-.008-.457-.042-.673-.02-.296.03-.18-.08-.266.072-.152.268-.008 1.068-.009 1.385l-.007 1.624c-.006 1.243-1.9 1.241-1.895 0l.011-2.346c.002-.497-.031-1.034.144-1.508.437-1.185 1.646-1.174 2.695-1.136a56 56 0 0 1 7.947.878c.602.109.864.924.566 1.417-2.967 4.91-7.538 8.675-12.861 10.632-1.308.481-2.712.373-3.146-1.195-.393-1.418-.135-3.147-.134-4.6l.006-10.371c0-.56.437-.919.947-.965 5.606-.499 11.257.181 16.879.163q.036-.721.02-1.438c-.062.009-.114.033-.183.03-5.382-.232-10.776.239-16.151-.235-.512-.045-.947-.41-.947-.965l-.005-10.037c-.001-1.368-.242-2.981.125-4.316.405-1.472 1.734-1.602 2.968-1.148a23.1 23.1 0 0 1 11.758 9.719c.298.493.036 1.308-.566 1.417a51 51 0 0 1-7.257.802c-.991.035-2.134.025-2.536-1.098-.37-1.033-.139-2.449-.144-3.531-.006-1.244 1.889-1.241 1.894 0l.008 1.642c.001.25-.085.78-.019 1.08.033.004.096.022.183-.004.205-.062.545-.016.767-.024q.613-.024 1.225-.064a47 47 0 0 0 4.011-.455c-2.263-3.22-5.401-5.781-9.002-7.3-.276-.116-1.26-.628-1.456-.571-.11.031-.067 1.114-.067 1.261l.002 4.209.004 7.501c5.061.347 10.138-.031 15.204.187.015.001.025.008.04.01-.531-4.324-2.549-8.402-6.008-11.483m-34.914 11.468c5.015-.204 10.039.159 15.049-.184l.004-7.501.002-4.209c0-.305.03-.628-.009-.931-.021-.167-.126-.341-.044-.299-.234-.121-1.198.426-1.47.54-3.601 1.511-6.741 4.081-9.002 7.3 1.331.203 2.667.368 4.012.455q.688.045 1.378.07c.183.006.438-.033.613.018l.157-.001c.108-.876.01-1.836.015-2.717.006-1.243 1.9-1.242 1.894 0-.005 1.075.23 2.504-.144 3.531-.409 1.123-1.54 1.134-2.536 1.098a51 51 0 0 1-7.257-.802c-.602-.109-.864-.924-.566-1.417a23.1 23.1 0 0 1 11.758-9.719c1.234-.454 2.563-.324 2.968 1.148.366 1.331.126 2.952.125 4.316l-.005 10.037c0 .559-.437.919-.947.965-5.375.474-10.768.003-16.151.235-.021.001-.036-.009-.056-.009-.002.037-.009.073-.01.111-.011.44.01.873.028 1.306 5.581.008 11.189-.658 16.754-.163.511.046.947.41.947.965l.006 10.371c.001 1.458.259 3.178-.134 4.6-.434 1.568-1.837 1.676-3.146 1.195-5.323-1.957-9.894-5.722-12.861-10.632-.298-.493-.036-1.308.566-1.417a56 56 0 0 1 7.947-.878c1.045-.037 2.264-.049 2.696 1.136.193.529.142 1.134.145 1.689l.01 2.165c.006 1.243-1.889 1.241-1.894 0l-.009-1.805c-.001-.266.141-1.117-.012-1.326-.087-.12-2.113.125-2.449.147a51 51 0 0 0-4.566.524c2.505 3.614 6 6.488 10.023 8.181.294.124 1.376.711 1.645.616.246-.087.146-1.246.146-1.46l-.002-4.396-.004-7.806c-5.196-.344-10.425.217-15.633.222 1.193 8.29 7.674 14.966 15.828 16.822 1.046.238 2.105.377 3.166.442 0-.023-.011-.038-.01-.062.454-13.154.584-26.316.402-39.476-1.34.039-2.676.162-3.979.452-7.956 1.77-14.124 8.452-15.388 16.553M185.076 174.662c.639-12.946 10.772-23.373 23.327-24.662 9.072-.932 18.853 2.721 24.72 9.936 7.165 8.81 6.741 21.669-.033 30.634-7.159 9.475-20.209 13.115-31.126 8.847-10.05-3.931-17.165-13.644-16.888-24.755m1.895 0c-.291 11.631 8.119 21.438 19.066 24.004 11.124 2.608 23.445-3.174 28.266-13.826 4.125-9.116 2.272-19.618-5.134-26.282-6.243-5.619-15.324-7.986-23.457-6.191-10.327 2.279-18.209 11.498-18.741 22.295"/><path fill="#d4af37" d="M189.229 176.832a21 21 0 0 1-.056-2.028c.566-10.964 9.099-19.792 19.751-20.885a23 23 0 0 1 2.072-.108 1.02 1.02 0 0 1 1.187.011c6.691.246 13.405 3.277 17.677 8.543 6.084 7.501 5.654 18.449-.15 26.027-6.125 7.998-17.21 10.986-26.437 7.286-7.588-3.043-13.137-10.002-13.98-18.184-.09-.208-.11-.44-.064-.662m36.975-15.53c-3.731-3.325-8.67-5.236-13.654-5.519a816 816 0 0 1-.402 39.458c-.001.036-.018.061-.022.095 7.609-.231 15.011-4.679 18.345-11.825a20.2 20.2 0 0 0 1.655-5.472c-5.237.001-10.496-.568-15.722-.222l-.004 7.806-.002 4.395c0 .331-.106 1.314.177 1.438.289.126 1.296-.46 1.615-.594 4.022-1.685 7.52-4.57 10.023-8.181a51 51 0 0 0-4.566-.524 51 51 0 0 0-1.514-.077c-.218-.008-.457-.042-.674-.02-.295.03-.179-.08-.265.072-.152.268-.008 1.068-.009 1.385l-.008 1.624c-.006 1.243-1.9 1.242-1.894 0l.011-2.346c.002-.497-.031-1.034.144-1.508.437-1.184 1.646-1.174 2.696-1.136 2.666.097 5.321.402 7.947.878.602.109.864.924.566 1.417-2.967 4.91-7.538 8.675-12.861 10.632-1.308.481-2.712.373-3.146-1.195-.392-1.418-.135-3.147-.134-4.6l.005-10.371c0-.56.437-.919.947-.965 5.606-.499 11.256.181 16.879.162q.036-.72.02-1.438c-.062.009-.113.033-.183.03-5.382-.232-10.776.239-16.151-.235-.511-.045-.947-.41-.947-.965l-.005-10.037c-.001-1.368-.242-2.981.125-4.316.405-1.472 1.734-1.602 2.968-1.148a23.1 23.1 0 0 1 11.759 9.719c.297.493.036 1.308-.566 1.417a51 51 0 0 1-7.257.802c-.991.035-2.134.025-2.536-1.098-.37-1.033-.139-2.449-.144-3.531-.006-1.244 1.889-1.241 1.895 0l.008 1.643c.001.25-.085.78-.019 1.08.033.004.096.022.183-.004.204-.062.544-.015.766-.024q.613-.024 1.225-.063a47 47 0 0 0 4.012-.456c-2.263-3.22-5.401-5.781-9.002-7.3-.276-.117-1.26-.628-1.456-.572-.11.032-.067 1.115-.067 1.262l.002 4.209.004 7.501c5.062.347 10.138-.031 15.204.187.015.001.025.009.04.01-.535-4.321-2.553-8.399-6.011-11.48M191.29 172.77c5.015-.204 10.039.159 15.049-.185l.004-7.501.002-4.209c0-.305.029-.628-.009-.931-.021-.167-.126-.341-.045-.299-.234-.121-1.198.426-1.47.54-3.601 1.511-6.741 4.081-9.002 7.3 1.331.203 2.667.369 4.012.456q.689.045 1.378.07c.183.007.438-.033.613.018l.158-.001c.108-.876.01-1.836.014-2.717.006-1.243 1.9-1.242 1.894 0-.005 1.075.23 2.504-.144 3.531-.408 1.123-1.54 1.134-2.536 1.098a51 51 0 0 1-7.257-.802c-.602-.109-.864-.924-.566-1.417a23.1 23.1 0 0 1 11.758-9.719c1.234-.454 2.563-.324 2.968 1.148.366 1.331.126 2.952.125 4.316l-.005 10.037c0 .559-.437.92-.947.965-5.375.474-10.769.003-16.151.235-.022.001-.036-.009-.057-.009-.002.037-.008.073-.01.111-.011.44.01.872.028 1.306 5.581.008 11.189-.658 16.754-.162.511.045.947.41.947.965l.005 10.371c.001 1.458.259 3.178-.134 4.6-.434 1.568-1.837 1.676-3.146 1.195-5.323-1.957-9.894-5.722-12.861-10.632-.298-.493-.036-1.308.566-1.417a56 56 0 0 1 7.947-.878c1.045-.038 2.263-.049 2.696 1.136.193.53.142 1.134.145 1.689l.01 2.165c.006 1.244-1.889 1.241-1.895 0l-.008-1.804c-.001-.266.14-1.117-.011-1.326-.087-.12-2.113.125-2.45.147a51 51 0 0 0-4.566.524c2.505 3.614 6.001 6.488 10.023 8.181.294.124 1.375.711 1.645.616.246-.086.147-1.246.147-1.46l-.003-4.395-.004-7.806c-5.196-.344-10.426.217-15.633.222 1.193 8.29 7.674 14.966 15.828 16.822a19.7 19.7 0 0 0 3.166.442c-.001-.023-.011-.039-.01-.062.454-13.154.584-26.316.402-39.476-1.341.039-2.676.162-3.979.452-7.954 1.767-14.121 8.449-15.385 16.55"/></svg>